<svg width="44" height="32" viewBox="0 0 44 32" fill="none" xmlns="http://www.w3.org/2000/svg">
<g id="European Union" filter="url(#filter0_d_2010_48)">
<path id="Vector" d="M38.898 3H3.29993V27.4639H38.898V3Z" fill="#000D7F"/>
<g id="Group">
<path id="Vector_2" fill-rule="evenodd" clip-rule="evenodd" d="M21.081 8.05725L21.33 8.74714L22.0619 8.76813L21.48 9.21506L21.6869 9.91694L21.081 9.50001L20.4811 9.91694L20.6881 9.21506L20.1062 8.76813L20.8381 8.74714L21.081 8.05725Z" fill="#FFCD15"/>
<path id="Vector_3" fill-rule="evenodd" clip-rule="evenodd" d="M17.9675 8.88208L18.2104 9.57497L18.9423 9.59296L18.3634 10.0399L18.5674 10.7418L17.9675 10.3248L17.3646 10.7418L17.5745 10.0399L16.9896 9.59296L17.7245 9.57497L17.9675 8.88208Z" fill="#FFCD15"/>
<path id="Vector_4" fill-rule="evenodd" clip-rule="evenodd" d="M24.2244 8.88208L24.4644 9.57497L25.2023 9.59296L24.6174 10.0399L24.8273 10.7418L24.2244 10.3248L23.6185 10.7418L23.8255 10.0399L23.2466 9.59296L23.9785 9.57497L24.2244 8.88208Z" fill="#FFCD15"/>
<path id="Vector_5" fill-rule="evenodd" clip-rule="evenodd" d="M15.6728 11.1887L15.9188 11.8786L16.6537 11.8996L16.0718 12.3435L16.2787 13.0454L15.6728 12.6315L15.0699 13.0454L15.2799 12.3435L14.698 11.8996L15.4299 11.8786L15.6728 11.1887Z" fill="#FFCD15"/>
<path id="Vector_6" fill-rule="evenodd" clip-rule="evenodd" d="M26.5221 11.1887L26.7681 11.8786L27.5 11.8996L26.9181 12.3435L27.128 13.0454L26.5221 12.6315L25.9192 13.0454L26.1292 12.3435L25.5443 11.8996L26.2792 11.8786L26.5221 11.1887Z" fill="#FFCD15"/>
<path id="Vector_7" fill-rule="evenodd" clip-rule="evenodd" d="M14.8511 14.3052L15.094 14.9981L15.8319 15.0161L15.247 15.46L15.457 16.1619L14.8511 15.7479L14.2482 16.1619L14.4551 15.46L13.8762 15.0161L14.6081 14.9981L14.8511 14.3052Z" fill="#FFCD15"/>
<path id="Vector_8" fill-rule="evenodd" clip-rule="evenodd" d="M27.3529 14.3052L27.5959 14.9981L28.3277 15.0161L27.7458 15.46L27.9558 16.1619L27.3529 15.7479L26.75 16.1619L26.957 15.46L26.3721 15.0161L27.1069 14.9981L27.3529 14.3052Z" fill="#FFCD15"/>
<path id="Vector_9" fill-rule="evenodd" clip-rule="evenodd" d="M15.6728 17.4486L15.9188 18.1385L16.6537 18.1595L16.0718 18.6034L16.2787 19.3083L15.6728 18.8914L15.0699 19.3083L15.2799 18.6034L14.698 18.1595L15.4299 18.1385L15.6728 17.4486Z" fill="#FFCD15"/>
<path id="Vector_10" fill-rule="evenodd" clip-rule="evenodd" d="M26.5221 17.4486L26.7681 18.1385L27.5 18.1595L26.9181 18.6034L27.128 19.3083L26.5221 18.8914L25.9192 19.3083L26.1292 18.6034L25.5443 18.1595L26.2792 18.1385L26.5221 17.4486Z" fill="#FFCD15"/>
<path id="Vector_11" fill-rule="evenodd" clip-rule="evenodd" d="M17.9675 19.7283L18.2104 20.4182L18.9423 20.4392L18.3634 20.8831L18.5674 21.585L17.9675 21.171L17.3646 21.585L17.5745 20.8831L16.9896 20.4392L17.7245 20.4182L17.9675 19.7283Z" fill="#FFCD15"/>
<path id="Vector_12" fill-rule="evenodd" clip-rule="evenodd" d="M24.2244 19.7283L24.4644 20.4182L25.2023 20.4392L24.6174 20.8831L24.8273 21.585L24.2244 21.171L23.6185 21.585L23.8255 20.8831L23.2466 20.4392L23.9785 20.4182L24.2244 19.7283Z" fill="#FFCD15"/>
<path id="Vector_13" fill-rule="evenodd" clip-rule="evenodd" d="M21.081 20.5471L21.33 21.237L22.0619 21.258L21.48 21.7019L21.6869 22.4038L21.081 21.9899L20.4811 22.4038L20.6881 21.7019L20.1062 21.258L20.8381 21.237L21.081 20.5471Z" fill="#FFCD15"/>
</g>
</g>
<defs>
<filter id="filter0_d_2010_48" x="0.899927" y="0.6" width="42.398" height="31.2639" filterUnits="userSpaceOnUse" color-interpolation-filters="sRGB">
<feFlood flood-opacity="0" result="BackgroundImageFix"/>
<feColorMatrix in="SourceAlpha" type="matrix" values="0 0 0 0 0 0 0 0 0 0 0 0 0 0 0 0 0 0 127 0" result="hardAlpha"/>
<feOffset dx="1" dy="1"/>
<feGaussianBlur stdDeviation="1.7"/>
<feComposite in2="hardAlpha" operator="out"/>
<feColorMatrix type="matrix" values="0 0 0 0 0 0 0 0 0 0 0 0 0 0 0 0 0 0 0.25 0"/>
<feBlend mode="normal" in2="BackgroundImageFix" result="effect1_dropShadow_2010_48"/>
<feBlend mode="normal" in="SourceGraphic" in2="effect1_dropShadow_2010_48" result="shape"/>
</filter>
</defs>
</svg>
