<svg width="44" height="32" viewBox="0 0 44 32" fill="none" xmlns="http://www.w3.org/2000/svg">
<g id="Isolation_Mode" clip-path="url(#clip0_2050_2165)" filter="url(#filter0_d_2050_2165)">
<g id="United Kingdom">
<path id="Vector" d="M39 3H3V27H39V3Z" fill="#000D7F"/>
<path id="Vector_2" fill-rule="evenodd" clip-rule="evenodd" d="M17.976 27V19.6784L7.06287 27H3V24.3824L10.8323 19H3V11.039H10.982L3 5.83377V3H7.03293L17.976 10.3156V3H23.976V10.3876L35.003 3H39V5.73471L31.1856 11.039H39V19H31.1198L39 24.3824V26.994H34.9431L23.976 19.6874V27H17.976Z" fill="white"/>
<path id="Vector_3" fill-rule="evenodd" clip-rule="evenodd" d="M19.1707 27V17.373H3V12.582H19.1707V3H22.7605V12.582H39V17.373H22.7605V27H19.1707Z" fill="#D41800"/>
<path id="Vector_4" fill-rule="evenodd" clip-rule="evenodd" d="M3 3V4.78311L12.3413 11.039H15.0539L3 3Z" fill="#D41800"/>
<path id="Vector_5" fill-rule="evenodd" clip-rule="evenodd" d="M24.2456 11.039L36.2426 3H38.9672L27.1049 11.039H24.2456Z" fill="#D41800"/>
<path id="Vector_6" fill-rule="evenodd" clip-rule="evenodd" d="M15.0062 18.9999L3.03613 26.9999H5.87146L17.7427 18.9969L15.0062 18.9999Z" fill="#D41800"/>
<path id="Vector_7" fill-rule="evenodd" clip-rule="evenodd" d="M27.042 19H29.7635L39.0001 25.1869V27L27.042 19Z" fill="#D41800"/>
</g>
</g>
<defs>
<filter id="filter0_d_2050_2165" x="0.6" y="0.6" width="42.8" height="30.8" filterUnits="userSpaceOnUse" color-interpolation-filters="sRGB">
<feFlood flood-opacity="0" result="BackgroundImageFix"/>
<feColorMatrix in="SourceAlpha" type="matrix" values="0 0 0 0 0 0 0 0 0 0 0 0 0 0 0 0 0 0 127 0" result="hardAlpha"/>
<feOffset dx="1" dy="1"/>
<feGaussianBlur stdDeviation="1.7"/>
<feComposite in2="hardAlpha" operator="out"/>
<feColorMatrix type="matrix" values="0 0 0 0 0 0 0 0 0 0 0 0 0 0 0 0 0 0 0.25 0"/>
<feBlend mode="normal" in2="BackgroundImageFix" result="effect1_dropShadow_2050_2165"/>
<feBlend mode="normal" in="SourceGraphic" in2="effect1_dropShadow_2050_2165" result="shape"/>
</filter>
<clipPath id="clip0_2050_2165">
<rect width="36" height="24" fill="white" transform="translate(3 3)"/>
</clipPath>
</defs>
</svg>
