<svg width="44" height="32" viewBox="0 0 44 32" fill="none" xmlns="http://www.w3.org/2000/svg">
<g id="Flag of the USA" filter="url(#filter0_d_2010_4)">
<g id="Flag of the USA_2">
<g id="Group">
<g id="Group_2">
<path id="Vector" d="M38.856 19.5692H3V21.4169H38.856V19.5692Z" fill="#F1F2F2"/>
<path id="Vector_2" d="M38.8561 4.8147H19.9952V6.66239H38.8561V4.8147Z" fill="#F1F2F2"/>
<path id="Vector_3" d="M38.8591 8.50708H20.0012V10.3518H38.8591V8.50708Z" fill="#F1F2F2"/>
<path id="Vector_4" d="M38.8591 12.1904H20.0012V14.0381H38.8591V12.1904Z" fill="#F1F2F2"/>
<path id="Vector_5" d="M38.856 15.8859H3V17.7306H38.856V15.8859Z" fill="#F1F2F2"/>
<path id="Vector_6" d="M38.856 23.2646H3V25.1093H38.856V23.2646Z" fill="#F1F2F2"/>
</g>
<g id="Group_3">
<path id="Vector_7" d="M38.856 21.4199H3V23.2646H38.856V21.4199Z" fill="#E10E00"/>
<path id="Vector_8" d="M38.8561 6.66235H19.9952V8.50705H38.8561V6.66235Z" fill="#E10E00"/>
<path id="Vector_9" d="M38.8561 3H19.9952V4.8147H38.8561V3Z" fill="#E10E00"/>
<path id="Vector_10" d="M38.8561 10.3518H19.9952V12.1935H38.8561V10.3518Z" fill="#E10E00"/>
<path id="Vector_11" d="M38.8561 14.0411H19.9952V15.8888H38.8561V14.0411Z" fill="#E10E00"/>
<path id="Vector_12" d="M38.856 17.7305H3V19.5722H38.856V17.7305Z" fill="#E10E00"/>
<path id="Vector_13" d="M38.856 25.1063H3V26.951H38.856V25.1063Z" fill="#E10E00"/>
</g>
</g>
<path id="Vector_14" d="M19.9952 3H3V15.8859H19.9952V3Z" fill="#000D7F"/>
<path id="Vector_15" fill-rule="evenodd" clip-rule="evenodd" d="M4.31082 3.97485L4.4638 4.46077L4.96171 4.45477L4.55978 4.75472L4.71275 5.24364L4.30782 4.94069L3.90589 5.24364L4.05886 4.75472L3.65393 4.45477L4.15485 4.46077L4.30482 3.97485H4.31082ZM15.7119 3.97485L15.8649 4.46077L16.3628 4.45477L15.9609 4.75472L16.1139 5.24364L15.7089 4.94069L15.307 5.24364L15.46 4.75472L15.058 4.45477L15.5559 4.46077L15.7059 3.97485H15.7119ZM18.5524 3.97485L18.7054 4.46077L19.2093 4.45477L18.8014 4.75472L18.9574 5.24364L18.5524 4.94069L18.1505 5.24364L18.3065 4.75472L17.8986 4.45477L18.3965 4.46077L18.5494 3.97485H18.5524ZM10.0099 3.97485L10.1628 4.46077L10.6608 4.45477L10.2558 4.75472L10.4118 5.24364L10.0069 4.94069L9.60494 5.24364L9.75791 4.75472L9.35298 4.45477L9.8509 4.46077L10.0039 3.97485H10.0099ZM7.15135 3.97485L7.30432 4.46077L7.80224 4.45477L7.39731 4.75472L7.55328 5.24364L7.14835 4.94069L6.74342 5.24364L6.90239 4.75472L6.49446 4.45477L6.99237 4.46077L7.14535 3.97485H7.15135ZM12.8504 3.97485L13.0004 4.46077L13.4983 4.45477L13.0934 4.75472L13.2493 5.24364L12.8474 4.94069L12.4425 5.24364L12.5954 4.75472L12.1905 4.45477L12.6854 4.46077L12.8444 3.97485H12.8504Z" fill="#F1F2F2"/>
<path id="Vector_16" fill-rule="evenodd" clip-rule="evenodd" d="M4.31082 6.38647L4.4638 6.87539H4.96171L4.55978 7.17534L4.71275 7.65826L4.30782 7.35831L3.90589 7.65826L4.05886 7.17534L3.65393 6.87539H4.15485L4.30482 6.38647H4.31082ZM15.7119 6.38647L15.8649 6.87539H16.3628L15.9609 7.17534L16.1139 7.65826L15.7089 7.35831L15.307 7.65826L15.46 7.17534L15.058 6.87539H15.5559L15.7059 6.38647H15.7119ZM18.5524 6.38647L18.7054 6.87539H19.2093L18.8014 7.17534L18.9574 7.65826L18.5524 7.35831L18.1505 7.65826L18.3065 7.17534L17.8986 6.87539H18.3965L18.5494 6.38647H18.5524ZM10.0099 6.38647L10.1628 6.87539H10.6608L10.2558 7.17534L10.4118 7.65826L10.0069 7.35831L9.60494 7.65826L9.75791 7.17534L9.35298 6.87539H9.8509L10.0039 6.38647H10.0099ZM7.15135 6.38647L7.30432 6.87539H7.80224L7.39731 7.17534L7.55328 7.65826L7.14835 7.35831L6.74342 7.65826L6.90239 7.17534L6.49446 6.87539H6.99237L7.14535 6.38647H7.15135ZM12.8504 6.38647L13.0004 6.87539H13.4983L13.0934 7.17534L13.2493 7.65826L12.8474 7.35831L12.4425 7.65826L12.5954 7.17534L12.1905 6.87539H12.6854L12.8444 6.38647H12.8504Z" fill="#F1F2F2"/>
<path id="Vector_17" fill-rule="evenodd" clip-rule="evenodd" d="M4.31082 8.771L4.4638 9.25692H4.96171L4.55978 9.55387L4.71275 10.0428L4.30782 9.73983L3.90589 10.0428L4.05886 9.55387L3.65393 9.25392H4.15485L4.30482 8.771H4.31082ZM15.7119 8.771L15.8649 9.25692H16.3628L15.9609 9.55387L16.1139 10.0428L15.7089 9.73983L15.307 10.0428L15.46 9.55387L15.058 9.25392H15.5559L15.7059 8.771H15.7119ZM18.5524 8.771L18.7054 9.25692H19.2093L18.8014 9.55387L18.9574 10.0428L18.5524 9.73983L18.1505 10.0428L18.3065 9.55387L17.8986 9.25392H18.3965L18.5494 8.771H18.5524ZM10.0099 8.771L10.1628 9.25692H10.6608L10.2558 9.55387L10.4118 10.0428L10.0069 9.73983L9.60494 10.0428L9.75791 9.55387L9.35298 9.25392H9.8509L10.0039 8.771H10.0099ZM7.15135 8.771L7.30432 9.25692H7.80224L7.39731 9.55387L7.55328 10.0428L7.14835 9.73983L6.74342 10.0428L6.90239 9.55387L6.49446 9.25392H6.99237L7.14535 8.771H7.15135ZM12.8504 8.771L13.0004 9.25692H13.4983L13.0934 9.55387L13.2493 10.0428L12.8474 9.73983L12.4425 10.0428L12.5954 9.55387L12.1905 9.25392H12.6854L12.8444 8.771H12.8504Z" fill="#F1F2F2"/>
<path id="Vector_18" fill-rule="evenodd" clip-rule="evenodd" d="M4.31082 11.1976L4.4638 11.6836H4.96171L4.55978 11.9865L4.71275 12.4664L4.30782 12.1665L3.90589 12.4664L4.05886 11.9865L3.65393 11.6836H4.15485L4.30482 11.1976H4.31082ZM15.7119 11.1976L15.8649 11.6836H16.3628L15.9609 11.9865L16.1139 12.4664L15.7089 12.1665L15.307 12.4664L15.46 11.9865L15.058 11.6836H15.5559L15.7059 11.1976H15.7119ZM18.5524 11.1976L18.7054 11.6836H19.2093L18.8014 11.9865L18.9574 12.4664L18.5524 12.1665L18.1505 12.4664L18.3065 11.9865L17.8986 11.6836H18.3965L18.5494 11.1976H18.5524ZM10.0099 11.1976L10.1628 11.6836H10.6608L10.2558 11.9865L10.4118 12.4664L10.0069 12.1665L9.60494 12.4664L9.75791 11.9865L9.35298 11.6836H9.8509L10.0039 11.1976H10.0099ZM7.15135 11.1976L7.30432 11.6836H7.80224L7.39731 11.9865L7.55328 12.4664L7.14835 12.1665L6.74342 12.4664L6.90239 11.9865L6.49446 11.6836H6.99237L7.14535 11.1976H7.15135ZM12.8504 11.1976L13.0004 11.6836H13.4983L13.0934 11.9865L13.2493 12.4664L12.8474 12.1665L12.4425 12.4664L12.5954 11.9865L12.1905 11.6836H12.6854L12.8444 11.1976H12.8504Z" fill="#F1F2F2"/>
<path id="Vector_19" fill-rule="evenodd" clip-rule="evenodd" d="M4.31082 13.6093L4.4638 14.0982H4.96171L4.55978 14.3921L4.71275 14.881L4.30782 14.5781L3.90589 14.881L4.05886 14.3921L3.65393 14.0982H4.15485L4.30482 13.6093H4.31082ZM15.7119 13.6093L15.8649 14.0982H16.3628L15.9609 14.3921L16.1139 14.881L15.7089 14.5781L15.307 14.881L15.46 14.3921L15.058 14.0982H15.5559L15.7059 13.6093H15.7119ZM18.5524 13.6093L18.7054 14.0982H19.2093L18.8014 14.3921L18.9574 14.881L18.5524 14.5781L18.1505 14.881L18.3065 14.3921L17.8986 14.0982H18.3965L18.5494 13.6093H18.5524ZM10.0099 13.6093L10.1628 14.0982H10.6608L10.2558 14.3921L10.4118 14.881L10.0069 14.5781L9.60494 14.881L9.75791 14.3921L9.35298 14.0982H9.8509L10.0039 13.6093H10.0099ZM7.15135 13.6093L7.30432 14.0982H7.80224L7.39731 14.3921L7.55328 14.881L7.14835 14.5781L6.74342 14.881L6.90239 14.3921L6.49446 14.0982H6.99237L7.14535 13.6093H7.15135ZM12.8504 13.6093L13.0004 14.0982H13.4983L13.0934 14.3921L13.2493 14.881L12.8474 14.5781L12.4425 14.881L12.5954 14.3921L12.1905 14.0982H12.6854L12.8444 13.6093H12.8504Z" fill="#F1F2F2"/>
<path id="Vector_20" fill-rule="evenodd" clip-rule="evenodd" d="M14.2511 12.4185L14.404 12.9074L14.902 12.9014L14.497 13.2013L14.659 13.6872L14.2511 13.3843L13.8491 13.6872L14.0021 13.2013L13.5972 12.9014L14.1011 12.9074L14.2511 12.4185Z" fill="#F1F2F2"/>
<path id="Vector_21" fill-rule="evenodd" clip-rule="evenodd" d="M8.55201 12.4185L8.70799 12.9074L9.20591 12.9014L8.80097 13.2013L8.95695 13.6872L8.55201 13.3843L8.15008 13.6872L8.30606 13.2013L7.90112 12.9014L8.39904 12.9074L8.55201 12.4185Z" fill="#F1F2F2"/>
<path id="Vector_22" fill-rule="evenodd" clip-rule="evenodd" d="M11.4107 12.4185L11.5696 12.9074L12.0675 12.9014L11.6626 13.2013L11.8156 13.6872L11.4107 13.3843L11.0117 13.6872L11.1677 13.2013L10.7598 12.9014L11.2577 12.9074L11.4107 12.4185Z" fill="#F1F2F2"/>
<path id="Vector_23" fill-rule="evenodd" clip-rule="evenodd" d="M17.1186 12.4185L17.2716 12.9074L17.7725 12.9014L17.3676 13.2013L17.5175 13.6872L17.1186 13.3843L16.7137 13.6872L16.8697 13.2013L16.4647 12.9014L16.9656 12.9074L17.1186 12.4185Z" fill="#F1F2F2"/>
<path id="Vector_24" fill-rule="evenodd" clip-rule="evenodd" d="M5.71454 12.4185L5.87052 12.9074L6.37143 12.9014L5.9635 13.2013L6.11947 13.6872L5.71454 13.3843L5.30961 13.6872L5.46558 13.2013L5.06665 12.9014L5.56157 12.9074L5.71454 12.4185Z" fill="#F1F2F2"/>
<path id="Vector_25" fill-rule="evenodd" clip-rule="evenodd" d="M14.2511 10.0068L14.404 10.4958H14.902L14.497 10.7897L14.659 11.2756L14.2511 10.9757L13.8491 11.2756L14.0021 10.7897L13.5972 10.4958H14.1011L14.2511 10.0068Z" fill="#F1F2F2"/>
<path id="Vector_26" fill-rule="evenodd" clip-rule="evenodd" d="M8.55201 10.0068L8.70799 10.4958H9.20591L8.80097 10.7897L8.95695 11.2756L8.55201 10.9757L8.15008 11.2756L8.30606 10.7897L7.90112 10.4958H8.39904L8.55201 10.0068Z" fill="#F1F2F2"/>
<path id="Vector_27" fill-rule="evenodd" clip-rule="evenodd" d="M11.4107 10.0068L11.5696 10.4958H12.0675L11.6626 10.7897L11.8156 11.2756L11.4107 10.9757L11.0117 11.2756L11.1677 10.7897L10.7598 10.4958H11.2577L11.4107 10.0068Z" fill="#F1F2F2"/>
<path id="Vector_28" fill-rule="evenodd" clip-rule="evenodd" d="M17.1186 10.0068L17.2716 10.4958H17.7725L17.3676 10.7897L17.5175 11.2756L17.1186 10.9757L16.7137 11.2756L16.8697 10.7897L16.4647 10.4958H16.9656L17.1186 10.0068Z" fill="#F1F2F2"/>
<path id="Vector_29" fill-rule="evenodd" clip-rule="evenodd" d="M5.71454 10.0068L5.87052 10.4958H6.37143L5.9635 10.7897L6.11947 11.2756L5.71454 10.9757L5.30961 11.2756L5.46558 10.7897L5.06665 10.4958H5.56157L5.71454 10.0068Z" fill="#F1F2F2"/>
<path id="Vector_30" fill-rule="evenodd" clip-rule="evenodd" d="M14.2511 7.59229L14.404 8.07821H14.902L14.497 8.37816L14.659 8.86407L14.2511 8.56112L13.8491 8.86407L14.0021 8.37816L13.5972 8.07821H14.1011L14.2511 7.59229Z" fill="#F1F2F2"/>
<path id="Vector_31" fill-rule="evenodd" clip-rule="evenodd" d="M8.55201 7.59229L8.70799 8.07821H9.20591L8.80097 8.37816L8.95695 8.86407L8.55201 8.56112L8.15008 8.86407L8.30606 8.37816L7.90112 8.07821H8.39904L8.55201 7.59229Z" fill="#F1F2F2"/>
<path id="Vector_32" fill-rule="evenodd" clip-rule="evenodd" d="M11.4107 7.59229L11.5696 8.07821H12.0675L11.6626 8.37816L11.8156 8.86407L11.4107 8.56112L11.0117 8.86407L11.1677 8.37816L10.7598 8.07821H11.2577L11.4107 7.59229Z" fill="#F1F2F2"/>
<path id="Vector_33" fill-rule="evenodd" clip-rule="evenodd" d="M17.1186 7.59229L17.2716 8.07821H17.7725L17.3676 8.37816L17.5175 8.86407L17.1186 8.56112L16.7137 8.86407L16.8697 8.37816L16.4647 8.07821H16.9656L17.1186 7.59229Z" fill="#F1F2F2"/>
<path id="Vector_34" fill-rule="evenodd" clip-rule="evenodd" d="M5.71454 7.59229L5.87052 8.07821H6.37143L5.9635 8.37816L6.11947 8.86407L5.71454 8.56112L5.30961 8.86407L5.46558 8.37816L5.06665 8.07821H5.56157L5.71454 7.59229Z" fill="#F1F2F2"/>
<path id="Vector_35" fill-rule="evenodd" clip-rule="evenodd" d="M14.2511 5.18359L14.404 5.66951H14.902L14.497 5.96646L14.659 6.45238L14.2511 6.14943L13.8491 6.45238L14.0021 5.96646L13.5972 5.66951H14.1011L14.2511 5.18359Z" fill="#F1F2F2"/>
<path id="Vector_36" fill-rule="evenodd" clip-rule="evenodd" d="M8.55201 5.18359L8.70799 5.66951H9.20591L8.80097 5.96646L8.95695 6.45238L8.55201 6.14943L8.15008 6.45238L8.30606 5.96646L7.90112 5.66951H8.39904L8.55201 5.18359Z" fill="#F1F2F2"/>
<path id="Vector_37" fill-rule="evenodd" clip-rule="evenodd" d="M11.4107 5.18359L11.5696 5.66951H12.0675L11.6626 5.96646L11.8156 6.45238L11.4107 6.14943L11.0117 6.45238L11.1677 5.96646L10.7598 5.66951H11.2577L11.4107 5.18359Z" fill="#F1F2F2"/>
<path id="Vector_38" fill-rule="evenodd" clip-rule="evenodd" d="M17.1186 5.18359L17.2716 5.66951H17.7725L17.3676 5.96646L17.5175 6.45238L17.1186 6.14943L16.7137 6.45238L16.8697 5.96646L16.4647 5.66951H16.9656L17.1186 5.18359Z" fill="#F1F2F2"/>
<path id="Vector_39" fill-rule="evenodd" clip-rule="evenodd" d="M5.71454 5.18359L5.87052 5.66951H6.37143L5.9635 5.96646L6.11947 6.45238L5.71454 6.14943L5.30961 6.45238L5.46558 5.96646L5.06665 5.66951H5.56157L5.71454 5.18359Z" fill="#F1F2F2"/>
</g>
</g>
<defs>
<filter id="filter0_d_2010_4" x="0.6" y="0.6" width="42.6591" height="30.751" filterUnits="userSpaceOnUse" color-interpolation-filters="sRGB">
<feFlood flood-opacity="0" result="BackgroundImageFix"/>
<feColorMatrix in="SourceAlpha" type="matrix" values="0 0 0 0 0 0 0 0 0 0 0 0 0 0 0 0 0 0 127 0" result="hardAlpha"/>
<feOffset dx="1" dy="1"/>
<feGaussianBlur stdDeviation="1.7"/>
<feComposite in2="hardAlpha" operator="out"/>
<feColorMatrix type="matrix" values="0 0 0 0 0 0 0 0 0 0 0 0 0 0 0 0 0 0 0.25 0"/>
<feBlend mode="normal" in2="BackgroundImageFix" result="effect1_dropShadow_2010_4"/>
<feBlend mode="normal" in="SourceGraphic" in2="effect1_dropShadow_2010_4" result="shape"/>
</filter>
</defs>
</svg>
