<svg width="236" height="56" viewBox="0 0 236 56" fill="none" xmlns="http://www.w3.org/2000/svg">
<g clip-path="url(#clip0_4352_46969)">
<path fill-rule="evenodd" clip-rule="evenodd" d="M44.053 31.0206L25.6113 17.6978C24.6815 17.0271 23.4235 17.0271 22.4951 17.6978L14.2756 23.6348C13.7955 23.9806 13.2093 24.1212 12.6241 24.0289C12.0385 23.9372 11.5249 23.6241 11.1761 23.1467C10.8273 22.67 10.6866 22.0868 10.7798 21.5053C10.8727 20.9234 11.1869 20.412 11.667 20.0655L17.4948 15.8554H17.4962L22.5694 12.1903C25.4039 10.1416 29.3113 10.3957 31.8461 12.7971C32.4062 13.329 33.2794 13.3616 33.9058 12.9082L44.053 5.57837V31.0206ZM43.8208 36.2282L43.7942 36.4042C43.7321 36.7892 43.4744 37.3447 43.1913 37.6123C42.4451 38.3199 41.3515 38.3758 40.5562 37.8005L31.5546 31.2914L31.489 31.2448C30.9432 30.8498 30.0518 30.8546 29.5553 31.3098C28.8329 31.9725 28.9275 33.0821 29.6803 33.6254L29.7907 33.7049L38.0461 39.669C38.5052 40.0016 38.8443 40.4932 38.9221 41.0542C39.0307 41.8284 38.7161 42.5564 38.0995 43.0025L37.9103 43.1397C37.1921 43.658 36.2197 43.658 35.5011 43.1397L25.2632 35.7425C24.7174 35.3491 23.8243 35.3529 23.3288 35.8077C22.6054 36.4719 22.7011 37.5797 23.4531 38.123L31.8189 44.1666C32.2794 44.4996 32.6171 44.9915 32.6946 45.5522C32.8049 46.3278 32.4907 47.054 31.873 47.5012L31.6827 47.638C30.9649 48.1567 29.9921 48.1567 29.2746 47.638L27.4094 46.2899L19.036 40.2411C18.4902 39.8467 17.5981 39.8523 17.1023 40.3071C16.3782 40.9695 16.4746 42.0784 17.2266 42.6217L25.5924 48.666C26.0522 48.9979 26.3899 49.4902 26.4691 50.0498C26.5777 50.8257 26.2635 51.5534 25.6455 51.9995L25.4618 52.1328C24.8183 52.597 23.9786 52.6456 23.2918 52.2797L3.27089 37.8154V5.57837L11.9711 11.8646L14.7134 13.8445L9.74424 17.4354C8.55815 18.2908 7.77954 19.5562 7.55049 20.9967C7.3197 22.436 7.66815 23.8782 8.53092 25.0586C9.39228 26.2376 10.6639 27.0121 12.1119 27.2416C12.4027 27.2871 12.6936 27.31 12.9823 27.31C14.1324 27.31 15.2497 26.9517 16.1984 26.2664L23.148 21.2463C23.6878 20.8561 24.4182 20.8561 24.9573 21.2463L43.1913 34.4246C43.6878 34.8825 43.9269 35.5512 43.8208 36.2282ZM41.7094 3.25127L33.4453 9.2216C33.1928 9.40387 32.8493 9.42122 32.5874 9.25111C29.2254 7.07295 24.8505 6.97678 21.3701 9.08238C21.2643 9.12925 21.162 9.18515 21.0642 9.25527L17.4941 11.8351L5.61407 3.25127H41.7094ZM46.8441 0.475624C46.5386 0.170112 46.1221 0 45.6877 0H1.6351C0.731831 0 0 0.727674 0 1.62477V38.6438C0 39.1642 0.251044 39.6527 0.673174 39.9589L21.8641 55.2723H21.8652C22.936 56.0465 24.3875 56.0465 25.4587 55.2723L46.6489 39.9641C47.0728 39.6568 47.3239 39.1687 47.3239 38.6486V1.62616C47.3239 1.19497 47.1517 0.781483 46.8441 0.475624Z" fill="white"/>
<path fill-rule="evenodd" clip-rule="evenodd" d="M173.447 14.9171C173.744 14.9171 173.985 15.1609 173.985 15.4587V38.3135C173.985 38.6124 173.744 38.8541 173.447 38.8541H166.172C165.875 38.8541 165.633 38.6124 165.633 38.3135V15.4587C165.633 15.1609 165.875 14.9171 166.172 14.9171H173.447ZM206.504 7.97885C206.801 7.97885 207.042 8.22024 207.042 8.5186V38.314C207.042 38.6113 206.801 38.8541 206.504 38.8541H199.229C198.932 38.8541 198.691 38.6113 198.691 38.314V8.5186C198.691 8.22024 198.932 7.97885 199.229 7.97885H206.504ZM169.983 3.12207C172.577 3.12207 174.681 5.21877 174.681 7.80469C174.681 10.3913 172.577 12.4887 169.983 12.4887C167.389 12.4887 165.286 10.3913 165.286 7.80469C165.286 5.21877 167.389 3.12207 169.983 3.12207ZM235.919 17.9008C235.919 17.9085 235.923 17.9209 235.923 17.9282V39.2934C235.923 44.4694 233.695 48.0461 228.828 49.7012C225.748 50.7501 222.818 50.8358 220.054 50.4069C219.771 50.3618 219.573 50.1023 219.598 49.8195L220.148 43.5176C220.176 43.1918 220.465 42.9846 220.792 43.0381C221.667 43.1834 223.285 43.198 223.305 43.198C223.989 43.2181 224.628 43.0481 225.196 42.7605C225.225 42.7473 225.252 42.7327 225.28 42.7188C226.462 42.0838 227.4 40.8753 227.444 39.4502V37.325C227.444 36.2635 226.7 36.4873 226.201 36.8749C224.626 38.0987 222.85 39.2833 220.28 39.2833C217.429 39.2833 215.263 38.1085 213.803 36.1883C212.966 35.0887 212.261 32.7659 212.261 27.8707V15.4563C212.261 15.1576 212.504 14.9171 212.805 14.9171H220.18C220.482 14.9171 220.726 15.1576 220.726 15.4563V27.8707C220.726 30.4713 222.018 31.836 224.022 31.836C226.028 31.836 227.454 30.4713 227.454 27.8707V15.4563C227.454 15.1576 227.698 14.9171 227.999 14.9171H235.373C235.675 14.9171 235.919 15.1576 235.919 15.4563V17.9008ZM193.618 14.9427C193.921 14.9427 194.167 15.1827 194.167 15.4797V21.7074C194.167 22.0047 193.921 22.2444 193.618 22.2444H190.275C189.972 22.2444 189.726 22.484 189.726 22.781V29.7442C189.726 32.9302 192.309 32.3825 193.535 32.2029C193.869 32.1539 194.167 32.4022 194.167 32.7323V37.7717C194.167 38.0069 194.007 38.1813 193.785 38.2866C192.77 38.7655 190.326 39.201 187.483 39.201C183.595 39.201 181.214 36.4539 181.214 33.0659V22.781C181.214 22.484 180.969 22.2444 180.665 22.2444H178.361C178.058 22.2444 177.812 22.0047 177.812 21.7074V15.4797C177.812 15.1827 178.058 14.9427 178.361 14.9427H180.665C180.969 14.9427 181.214 14.7017 181.214 14.4058V8.51549C181.214 8.21954 181.46 7.97885 181.764 7.97885H189.178C189.48 7.97885 189.726 8.21954 189.726 8.51549V14.4064C189.726 14.7017 189.972 14.9427 190.275 14.9427H193.618ZM78.3629 22.7991C81.3015 22.7991 82.993 21.3877 82.993 19.1383V19.0501C82.993 16.6248 81.2131 15.3897 78.3179 15.3897H73.2088C72.9076 15.3897 72.6641 15.631 72.6641 15.9289V22.2592C72.6641 22.5573 72.9076 22.7991 73.2088 22.7991H78.3629ZM64.0264 8.51874C64.0264 8.22058 64.2696 7.97885 64.5707 7.97885H78.7637C83.5282 7.97885 86.8225 9.21433 88.9158 11.3314C90.7414 13.0953 91.6757 15.4774 91.6757 18.5214V18.6088C91.6757 23.0861 89.3906 26.1346 85.8501 27.8288C85.5471 27.9726 85.436 28.3405 85.6254 28.6142L92.116 38.0084C92.3627 38.3671 92.1052 38.8541 91.6663 38.8541H83.1191C82.8735 38.8541 82.6439 38.7322 82.508 38.5295L76.726 29.9163C76.5534 29.6578 76.2605 29.5035 75.9475 29.5035H73.2088C72.9076 29.5035 72.6641 29.7445 72.6641 30.0427V38.3142C72.6641 38.6124 72.4192 38.8541 72.1187 38.8541H64.5707C64.2696 38.8541 64.0264 38.6124 64.0264 38.3142V8.51874ZM110.668 24.0868V24.0861C110.668 21.7439 108.948 19.8966 106.389 19.8966C104.015 19.8966 102.178 21.7439 102.178 24.0861V24.0868C102.178 24.3843 102.405 24.6249 102.684 24.6249H110.163C110.441 24.6249 110.668 24.3843 110.668 24.0868ZM106.025 14.2233C114.055 14.2233 118.31 20.0766 118.31 26.974V28.5176C118.31 28.8165 118.067 29.0602 117.768 29.0602H102.444L102.441 29.0616H102.426C102.129 29.0616 101.889 29.3033 101.889 29.6008C101.889 31.9423 104.042 33.3651 106.767 33.3651L106.77 33.3627C106.774 33.3627 106.78 33.3651 106.78 33.3651C108.24 33.3651 109.283 32.8037 110.111 31.9412C110.291 31.7557 110.53 31.6406 110.788 31.6406H117.195C117.576 31.6406 117.851 32.0312 117.706 32.3834C116.009 36.4676 112.295 39.201 106.025 39.201C99.0195 39.201 93.9518 33.8712 93.9518 26.974C93.9518 20.0766 98.5745 14.2233 106.025 14.2233ZM144.812 17.6641C146.825 15.5405 149.192 14.2233 152.503 14.2233C157.638 14.2233 160.762 17.3854 160.762 22.9187V37.9698C160.762 38.2672 160.517 38.5072 160.216 38.5072H152.827C152.525 38.5072 152.281 38.2672 152.281 37.9698V25.5974C152.281 23.0055 150.985 21.6447 148.976 21.6447C146.968 21.6447 145.494 23.0055 145.494 25.5974V37.9698C145.494 38.2672 145.249 38.5072 144.948 38.5072H137.56C137.257 38.5072 137.013 38.2672 137.013 37.9698V25.5974C137.013 23.0055 135.718 21.6447 133.709 21.6447C131.7 21.6447 130.272 23.0055 130.272 25.5974V37.9698C130.272 38.2672 130.027 38.5072 129.725 38.5072H122.336C122.034 38.5072 121.789 38.2672 121.789 37.9698V15.2884C121.789 14.9906 122.034 14.7506 122.336 14.7506H129.743C130.035 14.7506 130.272 14.983 130.272 15.2697V16.9614C130.272 17.3543 130.772 17.5227 131.021 17.2173C132.457 15.4685 134.653 14.3187 137.134 14.2264C137.245 14.224 137.353 14.2233 137.459 14.2233C140.455 14.2233 142.792 15.4454 144.145 17.6029C144.29 17.8363 144.62 17.8657 144.812 17.6641Z" fill="white"/>
</g>
<defs>
<clipPath id="clip0_4352_46969">
<rect width="235.79" height="56.0001" fill="white"/>
</clipPath>
</defs>
</svg>
