<svg width="80" height="80" viewBox="0 0 80 80" fill="none" xmlns="http://www.w3.org/2000/svg">
<path d="M40.0002 79.5423C62.0914 79.5423 79.9998 61.9171 79.9998 40.1753C79.9998 18.4335 62.0914 0.80835 40.0002 0.80835C17.9089 0.80835 0.000488281 18.4335 0.000488281 40.1753C0.000488281 61.9171 17.9089 79.5423 40.0002 79.5423Z" fill="#6FA0AF"/>
<path d="M56.3418 38.7775C54.2649 38.291 50.9023 35.9545 49.2207 34.8838C47.5396 33.8131 44.4734 31.7691 42.0012 30.8927C39.5289 30.0168 37.2542 29.5299 34.4848 30.0168C31.7153 30.5036 32.5205 31.9626 29.85 32.1574C27.1795 32.3521 27.1659 31.1849 26.869 30.3085C26.5726 29.4326 24.5943 30.0164 24.1986 29.1404C23.8032 28.2645 24.0996 26.2205 23.2096 25.5393C22.3196 24.8581 21.5285 26.9017 18.9569 27.0964C16.3854 27.2908 18.3633 24.7603 18.9569 23.2027C19.5501 21.6456 25.1879 21.1591 26.6712 21.0613C28.1544 20.964 28.0559 18.8226 28.9459 17.9462C29.8363 17.0703 32.2096 16.4864 33.0011 14.2473C33.7922 12.0085 34.8801 11.4247 37.1549 11.1326C39.4296 10.8409 40.9133 12.074 42.2319 7.66109C43.5505 3.24862 42.2319 2.21025 42.2319 2.21025C40.3973 1.54796 38.524 1.14349 36.645 0.946777C23.2857 2.03876 11.7906 9.59079 5.39458 20.4219C4.87145 23.6506 7.12497 25.1454 7.67373 24.7851C8.26695 24.396 8.47363 23.2023 9.26472 22.4238C11.2427 21.3527 12.3306 27.8746 14.4074 29.8213C16.4843 31.7679 19.5501 31.6705 22.3196 31.9626C25.089 32.2544 24.2979 32.936 26.3748 34.5909C28.4516 36.2458 30.5285 34.2988 31.3196 34.883C32.1107 35.4668 29.5395 39.3601 29.3417 42.0858C29.1438 44.8114 33.0011 49.2889 34.3858 51.0412C35.7705 52.7931 38.6385 54.1555 39.0343 54.9345C39.43 55.7127 40.419 61.6504 38.8368 64.0839C37.2542 66.5174 37.6499 69.8269 38.1446 72.4551C38.6389 75.083 39.7268 74.6939 40.8239 73.4284C41.9206 72.163 47.4411 64.5708 50.9027 62.7215C54.3642 60.8722 54.6607 57.1733 56.3422 53.3773C58.0237 49.581 60.1995 49.6788 61.2874 48.0239C62.3753 46.3689 63.76 45.7851 62.9685 44.2279C62.1774 42.6704 63.5621 42.9625 63.9575 41.5023C64.3532 40.0421 58.419 39.2636 56.3422 38.7771L56.3418 38.7775Z" fill="#B3C066"/>
<path d="M51.0573 2.33325C50.978 3.43982 51.0805 4.82155 51.9778 5.30999C53.562 6.17254 58.0245 9.24192 59.0147 10.9615C60.0049 12.6811 62.7983 15.1201 63.5049 15.784C64.2119 16.4474 63.7961 19.2547 64.28 20.83C64.7639 22.4049 65.2505 23.211 67.3899 24.5399C69.5292 25.8688 70.4533 27.1591 70.9043 28.5192C71.355 29.8796 74.4845 28.2062 75.7526 27.7978C76.281 27.6274 76.8437 26.8595 77.2831 25.8929C72.7861 14.5303 63.0831 5.73062 51.0569 2.33325H51.0573Z" fill="#B3C066"/>
<path d="M43.2009 21.7251C42.6445 21.5403 42.0389 21.5564 41.4733 21.4023C40.2072 21.0569 39.3504 19.9421 38.4171 19.0326C37.4834 18.1228 36.1211 17.3316 34.9126 17.8397C33.9593 18.2403 33.475 19.3902 33.6685 20.3927C33.862 21.3948 34.617 22.2278 35.5147 22.7383C36.4123 23.2488 37.4449 23.4767 38.4683 23.6395C39.7137 23.8374 40.9734 23.9485 42.2344 23.9726C43.0475 23.988 44.1021 23.7707 44.2091 22.9768C44.2864 22.4044 43.7565 21.91 43.2005 21.7255L43.2009 21.7251Z" fill="#B3C066"/>
<path d="M20.4879 48.4566C20.2187 45.1657 20.7519 39.4058 16.816 37.7311C15.3588 37.111 13.459 37.9736 11.9181 37.2932C9.85562 36.3821 9.13542 33.679 7.22759 32.766C5.32175 31.8537 5.14551 33.2796 3.98511 34.0129C2.95208 34.6657 1.69194 34.6617 0.451024 34.2577C0.155415 36.1878 0 38.1632 0 40.1745C0 47.6138 2.0985 54.5701 5.74233 60.5043C7.12224 60.2063 8.3223 59.6339 8.67679 58.7831C8.978 58.0609 8.10199 56.6709 8.45208 55.6669C8.91432 54.3411 9.60207 53.8791 10.9019 54.0521C12.4893 54.2634 14.6723 56.2511 16.3354 56.8156C18.3229 57.4897 20.4687 57.7874 22.3337 56.5692C24.3821 55.232 23.7408 54.1337 22.3044 52.2561C20.9453 50.4793 20.6706 50.6883 20.4879 48.4562V48.4566Z" fill="#B3C066"/>
<g style="mix-blend-mode:multiply" opacity="0.5">
<path d="M69.8763 36.3337C68.5196 56 56.2996 70.9578 37.4639 71.4676C17.544 72.0064 0.811697 58.0894 0.033021 38.6647C0.0137944 39.1661 0.000976562 39.6692 0.000976562 40.1753C0.000976562 61.9172 17.9093 79.5423 40.0002 79.5423C62.0912 79.5423 79.9999 61.9168 79.9999 40.1753C79.9999 18.4338 62.0912 0.80835 40.0002 0.80835C39.4863 0.80835 38.9752 0.820964 38.4657 0.840281C58.2022 1.60664 71.2262 16.7667 69.8763 36.3341V36.3337Z" fill="#6FA0AF"/>
</g>
</svg>
