<svg width="41" height="41" viewBox="0 0 41 41" fill="none" xmlns="http://www.w3.org/2000/svg">
<path fill-rule="evenodd" clip-rule="evenodd" d="M5.90541 20.5C5.90541 12.4396 12.4396 5.90541 20.5 5.90541C28.5604 5.90541 35.0946 12.4396 35.0946 20.5C35.0946 20.6286 35.0929 20.7568 35.0896 20.8845C35.0512 22.3766 36.2297 23.6175 37.7218 23.6559C39.214 23.6944 40.4548 22.5159 40.4933 21.0237C40.4977 20.8496 40.5 20.675 40.5 20.5C40.5 9.4543 31.5457 0.5 20.5 0.5C9.4543 0.5 0.5 9.4543 0.5 20.5C0.500004 20.675 0.502259 20.8496 0.506746 21.0237C0.545202 22.5159 1.78601 23.6944 3.27818 23.6559C4.77035 23.6175 5.94881 22.3766 5.91036 20.8845C5.90707 20.7568 5.90541 20.6286 5.90541 20.5ZM20.8845 35.0896C20.7568 35.0929 20.6286 35.0946 20.5 35.0946C20.3714 35.0946 20.2432 35.0929 20.1155 35.0896C18.6234 35.0512 17.3825 36.2297 17.3441 37.7218C17.3056 39.214 18.4841 40.4548 19.9763 40.4933C20.1504 40.4977 20.3249 40.5 20.5 40.5C20.6751 40.5 20.8496 40.4977 21.0237 40.4933C22.5159 40.4548 23.6944 39.214 23.6559 37.7218C23.6175 36.2297 22.3766 35.0512 20.8845 35.0896ZM27.4632 33.3301C26.152 34.0435 25.6674 35.6847 26.3808 36.9959C27.0942 38.307 28.7354 38.7916 30.0465 38.0783C30.3538 37.9111 30.6561 37.7362 30.9532 37.5537C32.2252 36.7726 32.6231 35.1083 31.842 33.8363C31.0609 32.5643 29.3965 32.1664 28.1246 32.9475C27.9077 33.0806 27.6872 33.2083 27.4632 33.3301ZM10.9534 38.0783C12.2646 38.7916 13.9058 38.307 14.6192 36.9959C15.3326 35.6847 14.848 34.0435 13.5368 33.3301C13.3128 33.2082 13.0923 33.0806 12.8754 32.9475C11.6035 32.1664 9.93912 32.5643 9.15802 33.8363C8.37692 35.1083 8.77485 36.7726 10.0468 37.5537C10.3439 37.7362 10.6462 37.9111 10.9534 38.0783ZM32.9475 28.1246C32.1664 29.3965 32.5643 31.0609 33.8363 31.842C35.1083 32.6231 36.7726 32.2252 37.5537 30.9532C37.7362 30.6561 37.9111 30.3538 38.0783 30.0466C38.7916 28.7354 38.307 27.0942 36.9959 26.3808C35.6847 25.6674 34.0435 26.152 33.3301 27.4632C33.2083 27.6872 33.0806 27.9077 32.9475 28.1246ZM3.44629 30.9532C4.2274 32.2252 5.89174 32.6231 7.16372 31.842C8.43569 31.0609 8.83362 29.3965 8.05251 28.1246C7.91936 27.9077 7.79175 27.6872 7.66986 27.4632C6.95649 26.152 5.31528 25.6674 4.00412 26.3808C2.69297 27.0942 2.20837 28.7354 2.92175 30.0465C3.0889 30.3538 3.26384 30.6561 3.44629 30.9532Z" fill="black"/>
</svg>
