<svg width="277" height="293" viewBox="0 0 277 293" fill="none" xmlns="http://www.w3.org/2000/svg">
<path d="M35.8253 292.557H19.6242C16.7089 292.557 16.1404 289.787 18.2049 286.09C18.6645 285.263 19.1566 284.344 19.6444 283.397C21.8137 281.518 24.7934 279.772 28.7933 279.768C32.1319 279.756 35.1318 280.723 37.0833 283.094C37.9341 287.88 38.2323 292.557 35.8292 292.557H35.8253Z" fill="#15273B"/>
<path d="M37.0793 283.094C35.1277 280.724 32.1318 279.756 28.7892 279.768C24.7894 279.776 21.8137 281.518 19.6404 283.397C21.3339 280.115 22.9871 276.381 23.3177 274.01L23.7451 272.091H35.8253C35.8253 272.091 35.6842 275.998 36.7487 281.328C36.8656 281.909 36.9744 282.506 37.0793 283.09V283.094Z" fill="#C9431E"/>
<path d="M60.8809 292.557H77.0818C79.997 292.557 80.5655 289.787 78.5011 286.09C78.0414 285.263 77.5496 284.344 77.0617 283.397C74.8924 281.518 71.9127 279.772 67.9128 279.768C64.5743 279.756 61.5743 280.723 59.6228 283.094C58.772 287.88 58.4736 292.557 60.8767 292.557H60.8809Z" fill="#15273B"/>
<path d="M59.6268 283.094C61.5784 280.724 64.5743 279.756 67.9169 279.768C71.9167 279.776 74.8924 281.518 77.0657 283.397C75.3722 280.115 73.719 276.381 73.3884 274.01L72.9612 272.091H60.881C60.881 272.091 61.0221 275.998 59.9576 281.328C59.8407 281.909 59.7317 282.506 59.6268 283.09V283.094Z" fill="#C9431E"/>
<path d="M69.3685 171.679L67.9492 274.01H58.5704L46.9176 172.816L36.6842 274.01H20.967L19.0598 218.012C18.4913 196.408 21.1928 148.938 21.1928 148.938H69.3724V171.679H69.3685Z" fill="#15273B"/>
<path d="M42.5106 97.3016L41.8654 97.2815C41.8654 97.2815 41.8815 96.8218 41.9863 96.1484L42.6234 96.2492C42.5266 96.8782 42.5106 97.2975 42.5106 97.3016Z" fill="#8F1D00"/>
<path d="M37.3898 104.807C44.1597 103.928 47.1071 99.3915 48.3531 96.2021C54.0101 96.4279 60.1873 97.3272 66.808 99.1619L69.3643 148.942V186.888H15.0035C14.6486 177.8 14.9712 169.446 15.5599 162.349C16.2171 154.39 17.209 148.007 17.9549 143.926C18.4589 141.176 18.8461 139.471 18.9509 139.035L18.9751 138.926L0 134.874C2.55636 123.576 6.8385 112.202 11.7335 106.661C13.6004 104.557 18.201 101.537 25.0233 99.2786C26.4749 98.7947 28.0272 98.3473 29.6764 97.9481" fill="#F66A45"/>
<path d="M15.5598 162.345L64.6791 146.627V124.213L21.1886 148.938L15.5598 162.345Z" fill="#F66A45"/>
<path d="M19.9307 138.918L18.9065 143.922C18.9065 143.922 53.264 128.188 56.2518 125.842C56.2518 125.842 58.7477 116.915 60.2073 112.141C61.6387 107.459 62.3122 106.451 63.167 106.451C64.2799 106.451 64.5823 107.705 64.6387 109.87C64.7355 113.491 64.6387 122.926 64.6387 129.039C64.6387 135.152 61.9372 136.857 54.1229 142.398C46.3047 147.942 18.2089 166.562 7.32622 162.611C-0.387211 159.808 -1.41539 150.43 1.89094 135.293L19.9346 138.918H19.9307Z" fill="#C9431E"/>
<path d="M27.8255 98.2626C35.5429 95.6578 35.3737 86.505 32.9101 84.5575C30.3538 82.5374 29.2207 78.6665 31.5593 76.7392C33.9746 74.7514 41.0307 74.1828 42.4299 68.5661C42.7 67.4855 42.7001 66.1065 42.067 64.8525C44.071 66.6025 45.1274 69.5177 45.4016 70.808C45.958 73.3724 47.1273 73.7998 48.974 75.453C49.9377 76.3118 50.1958 77.6182 48.3491 79.3681C51.0103 86.2872 49.9901 88.767 45.8895 90.4726C43.3492 91.533 42.5508 94.5611 42.3049 96.2022C44.2443 96.1175 46.2604 96.1135 48.353 96.2022C47.1071 99.3916 44.1597 103.928 37.3897 104.807C29.9223 105.783 26.382 101.662 25.0272 99.2706C25.0272 99.2706 25.3378 99.1012 27.8296 98.2626H27.8255Z" fill="#C9431E"/>
<path d="M207.488 22.1679V271.098C207.488 278.292 201.638 284.134 194.453 284.134H86.138C78.9527 284.134 73.1021 278.292 73.1021 271.098V22.1679C73.1021 14.9747 78.9527 9.12402 86.138 9.12402H194.453C201.638 9.12402 207.488 14.9747 207.488 22.1679Z" fill="#FAF6EF"/>
<path d="M194.452 0.701172H86.1379C74.3037 0.701172 64.6791 10.33 64.6791 22.1682V271.099C64.6791 282.933 74.3077 292.558 86.1379 292.558H194.452C206.287 292.558 215.912 282.929 215.912 271.099V22.1682C215.912 10.3259 206.283 0.701172 194.452 0.701172ZM207.488 271.099C207.488 278.292 201.638 284.135 194.452 284.135H86.1379C78.9527 284.135 73.1021 278.292 73.1021 271.099V22.1682C73.1021 14.9749 78.9527 9.12431 86.1379 9.12431H194.452C201.638 9.12431 207.488 14.9749 207.488 22.1682V271.099Z" fill="#A6A19A"/>
<path d="M61.4454 37.0147H69.183V66.3363H61.4454C59.9495 66.3363 58.7357 65.1225 58.7357 63.6266V39.7202C58.7357 38.2243 59.9495 37.0107 61.4454 37.0107V37.0147Z" fill="#A6A19A"/>
<path d="M61.4454 74.2551H69.183V103.577H61.4454C59.9495 103.577 58.7357 102.363 58.7357 100.867V76.9606C58.7357 75.4647 59.9495 74.251 61.4454 74.251V74.2551Z" fill="#A6A19A"/>
<path d="M123.612 171.751C122.306 171.751 120.991 171.307 119.915 170.4L94.3028 148.833C91.8755 146.788 91.5651 143.163 93.6094 140.74C95.6537 138.313 99.2745 138.002 101.702 140.047L122.939 157.933L178.215 92.8667C180.268 90.4474 183.892 90.1531 186.312 92.2095C188.731 94.2619 189.025 97.8868 186.969 100.306L127.991 169.731C126.854 171.069 125.237 171.755 123.612 171.755V171.751Z" fill="#55979E"/>
<path d="M179.465 202.206H101.125C99.0342 202.206 97.3392 203.901 97.3392 205.992C97.3392 208.083 99.0342 209.778 101.125 209.778H179.465C181.556 209.778 183.252 208.083 183.252 205.992C183.252 203.901 181.556 202.206 179.465 202.206Z" fill="#A6A19A"/>
<path d="M164.147 223.741H116.443C114.352 223.741 112.657 225.436 112.657 227.527C112.657 229.618 114.352 231.314 116.443 231.314H164.147C166.238 231.314 167.934 229.618 167.934 227.527C167.934 225.436 166.238 223.741 164.147 223.741Z" fill="#A6A19A"/>
<path d="M42.434 68.5649C41.0308 74.1776 33.9785 74.7461 31.5633 76.738C29.2246 78.6613 30.3537 82.5322 32.914 84.5563C35.3736 86.5078 37.1277 94.6488 29.6764 97.943C28.0272 98.3422 26.4789 98.7897 25.0233 99.2735C18.2009 101.536 13.6003 104.552 11.7335 106.656C1.85478 93.0117 16.7775 89.8867 18.0557 77.5202C19.3339 65.1537 25.4507 61.2587 34.8254 61.5329C39.0954 61.6539 41.184 63.1297 42.059 64.8474C42.059 64.8555 42.067 64.8555 42.067 64.8555C42.7001 66.1094 42.7 67.4924 42.4299 68.569L42.434 68.5649Z" fill="#15273B"/>
<path d="M248.479 231.366H190.078C188.858 231.366 187.868 232.355 187.868 233.576V290.271C187.868 291.492 188.858 292.481 190.078 292.481H248.479C249.699 292.481 250.689 291.492 250.689 290.271V233.576C250.689 232.355 249.699 231.366 248.479 231.366Z" fill="#FFBB6F"/>
<path d="M217.948 231.386L214.073 231.341C214.484 193.899 195.074 177.448 194.88 177.287L197.348 174.299C198.207 175.008 218.383 192.113 217.952 231.386H217.948Z" fill="#617715"/>
<path d="M217.347 231.386C216.916 192.109 237.088 175.004 237.947 174.299L240.415 177.287L239.181 175.791L240.419 177.283C240.221 177.448 220.811 194.032 221.222 231.341L217.347 231.386Z" fill="#617715"/>
<path d="M227.827 231.365H223.952C223.952 210.427 234.02 203.842 234.451 203.576L236.532 206.846C236.443 206.903 227.83 212.749 227.83 231.365H227.827Z" fill="#9CB15B"/>
<path d="M198.662 192.368C216.384 193.255 217.149 205.625 216.597 209.56C215.867 214.79 211.065 224.427 196.61 221.391C192.82 220.596 182.953 216.919 175.175 202.593C174.679 201.682 174.97 200.541 175.84 199.98C179.534 197.605 189.429 191.904 198.662 192.368Z" fill="#9CB15B"/>
<path d="M189.134 147.236C211.251 155.732 206.944 171.368 204.569 176.005C201.412 182.174 191.203 192.097 174.151 182.303C169.643 179.715 158.535 170.917 154.865 149.538C154.692 148.522 155.317 147.534 156.321 147.28C161.498 145.962 177.187 142.639 189.138 147.232L189.134 147.236Z" fill="#9CB15B"/>
<path d="M257.652 175.795C249.644 198.093 233.915 194.129 229.226 191.855C222.992 188.831 212.847 178.844 222.262 161.582C224.754 157.018 233.302 145.72 254.596 141.583C255.608 141.385 256.608 141.994 256.886 142.986C258.317 148.131 261.983 163.743 257.652 175.795Z" fill="#617715"/>
<path d="M254.551 194.223C235.794 190.518 231.758 203.255 231.306 207.513C230.706 213.17 233.206 224.5 249.112 225.105C253.281 225.262 264.559 224 276.438 211.053C277.192 210.231 277.188 208.961 276.425 208.15C273.184 204.703 264.329 196.155 254.556 194.223H254.551Z" fill="#9CB15B"/>
</svg>
