<svg width="121" height="81" viewBox="0 0 121 81" fill="none" xmlns="http://www.w3.org/2000/svg">
<path d="M120.08 0.26001H0.0100098V80.23H120.08V0.26001Z" fill="#0600B8"/>
<path fill-rule="evenodd" clip-rule="evenodd" d="M21.3199 32.48V22.66L5.78003 32.48H0.0100098V28.97L11.15 21.75H0.0100098V11.05H11.37L0.0100098 4.07001V0.26001H5.75L21.3199 10.08V0.26001H29.85V10.18L45.54 0.26001H51.23V3.94001L40.11 11.05H51.23V21.75H40.01L51.23 28.97V32.48H45.46L29.85 22.67V32.48H21.3199Z" fill="#F7F7F7"/>
<path fill-rule="evenodd" clip-rule="evenodd" d="M23.02 32.48V19.56H0.0100098V13.13H23.02V0.26001H28.12V13.13H51.23V19.56H28.12V32.48H23.02Z" fill="#E10E00"/>
<path fill-rule="evenodd" clip-rule="evenodd" d="M0.0100098 0.26001V2.66001L13.3 11.05H17.16L0.0100098 0.26001Z" fill="#E10E00"/>
<path fill-rule="evenodd" clip-rule="evenodd" d="M30.23 11.05L47.3101 0.26001H51.17L34.3 11.05H30.23Z" fill="#E10E00"/>
<path fill-rule="evenodd" clip-rule="evenodd" d="M17.08 21.75L0.0500488 32.48H4.09998L20.98 21.75H17.08Z" fill="#E10E00"/>
<path fill-rule="evenodd" clip-rule="evenodd" d="M34.21 21.75H38.08L51.23 30.06V32.48L34.21 21.75Z" fill="#E10E00"/>
<path fill-rule="evenodd" clip-rule="evenodd" d="M80.39 10.22L81.3199 13.02L84.13 11.99L82.49 14.46L85.0601 15.98L82.08 16.25L82.47 19.17L80.39 17.05L78.3101 19.17L78.7 16.25L75.72 15.98L78.29 14.46L76.64 11.99L79.46 13.02L80.39 10.22Z" fill="#F7F7F7"/>
<path fill-rule="evenodd" clip-rule="evenodd" d="M26.61 54.4999L28.17 59.1499L32.8199 57.4399L30.1 61.5199L34.35 64.0299L29.41 64.4899L30.0601 69.3299L26.61 65.8199L23.17 69.3299L23.8199 64.4899L18.88 64.0299L23.13 61.5199L20.41 57.4399L25.0699 59.1499L26.61 54.4999Z" fill="#F7F7F7"/>
<path fill-rule="evenodd" clip-rule="evenodd" d="M92.58 32.3099L93.52 35.1199L96.33 34.0899L94.6899 36.5499L97.25 38.0799L94.27 38.3499L94.67 41.2699L92.58 39.1499L90.5 41.2699L90.9 38.3499L87.92 38.0799L90.48 36.5499L88.84 34.0899L91.65 35.1199L92.58 32.3099Z" fill="#F7F7F7"/>
<path fill-rule="evenodd" clip-rule="evenodd" d="M64.86 35.5399L65.8 38.3499L68.61 37.3199L66.96 39.7799L69.53 41.2899L66.55 41.5699L66.9399 44.4999L64.86 42.3799L62.78 44.4999L63.17 41.5699L60.1899 41.2899L62.76 39.7799L61.11 37.3199L63.9301 38.3499L64.86 35.5399Z" fill="#F7F7F7"/>
<path fill-rule="evenodd" clip-rule="evenodd" d="M78.04 61.46L78.98 64.26L81.79 63.24L80.15 65.7L82.72 67.22L79.74 67.5L80.12 70.41L78.04 68.29L75.97 70.41L76.36 67.5L73.37 67.22L75.9301 65.7L74.3 63.24L77.1 64.26L78.04 61.46Z" fill="#F7F7F7"/>
<path fill-rule="evenodd" clip-rule="evenodd" d="M84.54 43.24L85.23 45.17L87.3199 45.23L85.66 46.47L86.26 48.44L84.54 47.28L82.8199 48.44L83.42 46.47L81.75 45.23L83.85 45.17L84.54 43.24Z" fill="#F7F7F7"/>
</svg>
