<svg width="121" height="81" viewBox="0 0 121 81" fill="none" xmlns="http://www.w3.org/2000/svg">
<path d="M90.26 0.570068H30.22V80.6801H90.26V0.570068Z" fill="#F7F7F7"/>
<path d="M120.37 0.570068H90.26V80.6701H120.37V0.570068Z" fill="#EC3402"/>
<path d="M30.21 0.570068H0.100006V80.6801H30.21V0.570068Z" fill="#EC3402"/>
<path fill-rule="evenodd" clip-rule="evenodd" d="M61.38 67.43H59.66C59.66 66.1 60.07 56.57 59.89 56.24C59.74 55.95 59.33 55.82 59.01 55.85C58.3 55.94 57.58 56.01 56.87 56.12C54.3 56.43 51.74 56.75 49.19 57.05C49.36 56.44 50.25 53.92 50.07 53.3C49.91 52.78 49.5 52.52 49.11 52.17L39.59 44.12C40.05 43.9 42.06 43.1 42.26 42.64C42.39 42.37 42.3 42.01 42.22 41.73C41.63 39.53 41.06 37.32 40.48 35.12C41.31 35.32 46.1 36.53 46.7 36.44C47.45 36.31 47.6 34.85 47.78 34.13C47.88 33.78 47.98 33.4 48.07 33.04C48.81 33.92 52.54 38.41 53.02 38.76C53.91 39.41 54.38 38.56 54.29 37.73C53.61 33.96 52.93 30.2 52.25 26.43C52.97 26.85 55.26 28.24 56.03 28.21C56.42 28.19 56.66 27.85 56.83 27.54C57.8 25.84 59.38 22.56 60.44 20.52C60.85 21.32 63.96 27.6 64.32 27.94C64.58 28.19 65.03 28.29 65.36 28.16C66.45 27.59 67.53 27.02 68.61 26.44C68.33 28 66.52 37.47 66.6 38.22C66.71 39.2 67.52 39.16 68.1 38.57C69.67 36.74 71.23 34.89 72.8 33.07C72.96 33.6 73.5 36.02 73.85 36.27C74.41 36.69 75.34 36.28 75.91 36.17C77.41 35.84 78.91 35.51 80.4 35.19C80.28 35.64 78.46 42.02 78.61 42.58C78.76 43.16 80.4 43.66 81.31 44.16C79.57 45.62 71.29 52.48 71.01 52.92C70.74 53.33 70.76 53.82 70.88 54.27C71.16 55.19 71.44 56.14 71.71 57.07C70.85 56.96 61.86 55.78 61.44 55.87C61.19 55.94 60.94 56.16 60.92 56.42C61.07 60.1 61.23 63.78 61.37 67.45L61.38 67.43Z" fill="#EC3402"/>
</svg>
