<svg width="120" height="82" viewBox="0 0 120 82" fill="none" xmlns="http://www.w3.org/2000/svg">
<path d="M119.47 0.420044H0.790039V81.98H119.47V0.420044Z" fill="#000D7F"/>
<path fill-rule="evenodd" clip-rule="evenodd" d="M60.0701 17.28L60.8899 19.59L63.3401 19.65L61.3899 21.14L62.0901 23.48L60.0701 22.1L58.0701 23.48L58.76 21.14L56.8101 19.65L59.26 19.59L60.0701 17.28Z" fill="#FFCD15"/>
<path fill-rule="evenodd" clip-rule="evenodd" d="M49.6899 20.03L50.49 22.34L52.9399 22.41L51.01 23.89L51.6899 26.24L49.6899 24.85L47.6799 26.24L48.3701 23.89L46.4299 22.41L48.8701 22.34L49.6899 20.03Z" fill="#FFCD15"/>
<path fill-rule="evenodd" clip-rule="evenodd" d="M70.54 20.03L71.3501 22.34L73.8101 22.41L71.8601 23.89L72.5601 26.24L70.54 24.85L68.53 26.24L69.22 23.89L67.29 22.41L69.73 22.34L70.54 20.03Z" fill="#FFCD15"/>
<path fill-rule="evenodd" clip-rule="evenodd" d="M42.04 27.72L42.8601 30.02L45.3101 30.09L43.3701 31.58L44.05 33.92L42.04 32.53L40.03 33.92L40.73 31.58L38.79 30.09L41.23 30.02L42.04 27.72Z" fill="#FFCD15"/>
<path fill-rule="evenodd" clip-rule="evenodd" d="M78.21 27.72L79.03 30.02L81.46 30.09L79.53 31.58L80.23 33.92L78.21 32.53L76.2 33.92L76.8999 31.58L74.95 30.09L77.3999 30.02L78.21 27.72Z" fill="#FFCD15"/>
<path fill-rule="evenodd" clip-rule="evenodd" d="M39.3 38.11L40.1101 40.42L42.5601 40.48L40.6201 41.96L41.3101 44.31L39.3 42.92L37.29 44.31L37.97 41.96L36.05 40.48L38.49 40.42L39.3 38.11Z" fill="#FFCD15"/>
<path fill-rule="evenodd" clip-rule="evenodd" d="M80.98 38.11L81.79 40.42L84.23 40.48L82.29 41.96L82.99 44.31L80.98 42.92L78.96 44.31L79.6599 41.96L77.71 40.48L80.1599 40.42L80.98 38.11Z" fill="#FFCD15"/>
<path fill-rule="evenodd" clip-rule="evenodd" d="M42.04 48.5901L42.8601 50.9001L45.3101 50.9601L43.3701 52.4501L44.05 54.8001L42.04 53.4101L40.03 54.8001L40.73 52.4501L38.79 50.9601L41.23 50.9001L42.04 48.5901Z" fill="#FFCD15"/>
<path fill-rule="evenodd" clip-rule="evenodd" d="M78.21 48.5901L79.03 50.9001L81.46 50.9601L79.53 52.4501L80.23 54.8001L78.21 53.4101L76.2 54.8001L76.8999 52.4501L74.95 50.9601L77.3999 50.9001L78.21 48.5901Z" fill="#FFCD15"/>
<path fill-rule="evenodd" clip-rule="evenodd" d="M49.6899 56.1901L50.49 58.5001L52.9399 58.5601L51.01 60.0401L51.6899 62.3901L49.6899 61.0001L47.6799 62.3901L48.3701 60.0401L46.4299 58.5601L48.8701 58.5001L49.6899 56.1901Z" fill="#FFCD15"/>
<path fill-rule="evenodd" clip-rule="evenodd" d="M70.54 56.1901L71.3501 58.5001L73.8101 58.5601L71.8601 60.0401L72.5601 62.3901L70.54 61.0001L68.53 62.3901L69.22 60.0401L67.29 58.5601L69.73 58.5001L70.54 56.1901Z" fill="#FFCD15"/>
<path fill-rule="evenodd" clip-rule="evenodd" d="M60.0701 58.92L60.8899 61.22L63.3401 61.29L61.3899 62.7701L62.0901 65.12L60.0701 63.73L58.0701 65.12L58.76 62.7701L56.8101 61.29L59.26 61.22L60.0701 58.92Z" fill="#FFCD15"/>
</svg>
