<svg width="121" height="81" viewBox="0 0 121 81" fill="none" xmlns="http://www.w3.org/2000/svg">
<path d="M120.38 0.0799561H0.0297852V80.44H120.38V0.0799561Z" fill="#F1F2F2"/>
<path d="M68.9302 40.2699L72.5801 33.9199L73.29 32.7099H64.5698L60.9102 26.3699L60.2002 25.1599L59.5 26.3699L55.8301 32.7099H47.1099L47.8301 33.9199L51.4702 40.2699L47.8301 46.5999L47.1099 47.8199H55.8301L59.5 54.1599L60.2002 55.3799L60.9102 54.1599L64.5698 47.8199H73.29L72.5801 46.5999L68.9302 40.2699ZM70.4702 34.3399L68 38.6399L65.5098 34.3399H70.4702ZM60.2002 28.3999L62.6899 32.7099H57.7202L60.2002 28.3999ZM49.9302 34.3399H54.8999L52.4102 38.6399L49.9302 34.3399ZM49.9302 46.1999L52.4102 41.8999L54.8999 46.1999H49.9302ZM60.2002 52.1199L57.7202 47.8199H62.6899L60.2002 52.1199ZM63.6299 46.1999H56.7798L53.3599 40.2699L56.7798 34.3399H63.6299L67.0498 40.2699L63.6299 46.1999ZM65.5098 46.1999L68 41.8999L70.4702 46.1999H65.5098Z" fill="#0A62C2"/>
<path d="M0.0297852 8.04993H120.38V20.45H0.0297852V8.04993Z" fill="#0A62C2"/>
<path d="M0.0297852 60.09H120.31V72.48H0.0297852V60.09Z" fill="#0A62C2"/>
</svg>
