<svg width="121" height="81" viewBox="0 0 121 81" fill="none" xmlns="http://www.w3.org/2000/svg">
<path d="M120.14 0.73999H0.560059V80.76H120.14V0.73999Z" fill="#F2F2F2"/>
<path fill-rule="evenodd" clip-rule="evenodd" d="M99.0699 54.8699L101.72 56.5499L96.63 63.6399L94 61.9799L99.0699 54.8699Z" fill="black"/>
<path fill-rule="evenodd" clip-rule="evenodd" d="M93.05 63.3398L95.7 65.0198L90.6 72.0998L87.98 70.4398L93.05 63.3398Z" fill="black"/>
<path fill-rule="evenodd" clip-rule="evenodd" d="M94.9399 52.22L97.58 53.9L92.49 60.99L89.87 59.33L94.9399 52.22Z" fill="black"/>
<path fill-rule="evenodd" clip-rule="evenodd" d="M88.92 60.6899L91.5601 62.3699L86.48 69.46L83.85 67.7999L88.92 60.6899Z" fill="black"/>
<path fill-rule="evenodd" clip-rule="evenodd" d="M30.02 11.6699L32.67 13.3499L21.7 28.8899L18.97 27.1599L30.02 11.6699Z" fill="black"/>
<path fill-rule="evenodd" clip-rule="evenodd" d="M34.16 14.25L36.8 15.93L25.84 31.46L23.1 29.74L34.16 14.25Z" fill="black"/>
<path fill-rule="evenodd" clip-rule="evenodd" d="M38.3101 16.8298L40.96 18.5099L30 34.0399L27.26 32.3199L38.3101 16.8298Z" fill="black"/>
<path fill-rule="evenodd" clip-rule="evenodd" d="M86.49 14.25L83.83 15.93L94.8 31.46L97.54 29.74L86.49 14.25Z" fill="black"/>
<path fill-rule="evenodd" clip-rule="evenodd" d="M82.33 16.8298L79.6801 18.5099L84.77 25.5898L87.4 23.9298L82.33 16.8298Z" fill="black"/>
<path fill-rule="evenodd" clip-rule="evenodd" d="M88.35 25.2998L85.71 26.9798L90.79 34.0598L93.42 32.3998L88.35 25.2998Z" fill="black"/>
<path fill-rule="evenodd" clip-rule="evenodd" d="M90.67 11.6499L88.04 13.3399L93.11 20.3899L95.72 18.7399L90.67 11.6499Z" fill="black"/>
<path fill-rule="evenodd" clip-rule="evenodd" d="M96.67 20.0999L94.03 21.7698L99.1 28.8298L101.72 27.1699L96.67 20.0999Z" fill="black"/>
<path fill-rule="evenodd" clip-rule="evenodd" d="M90.73 49.71L93.36 51.3799L88.3 58.4299L85.6801 56.78L90.73 49.71Z" fill="black"/>
<path fill-rule="evenodd" clip-rule="evenodd" d="M84.73 58.1399L87.37 59.7999L82.3 66.8599L79.6801 65.2198L84.73 58.1399Z" fill="black"/>
<path fill-rule="evenodd" clip-rule="evenodd" d="M25.74 52.28L23.1 53.95L28.1899 61.05L30.8199 59.39L25.74 52.28Z" fill="black"/>
<path fill-rule="evenodd" clip-rule="evenodd" d="M31.77 60.75L29.12 62.43L34.22 69.52L36.85 67.86L31.77 60.75Z" fill="black"/>
<path fill-rule="evenodd" clip-rule="evenodd" d="M29.95 49.6599L27.3 51.33L38.27 66.8699L41 65.15L29.95 49.6599Z" fill="black"/>
<path fill-rule="evenodd" clip-rule="evenodd" d="M21.66 54.8499L19.02 56.5299L29.98 72.0699L32.72 70.3399L21.66 54.8499Z" fill="black"/>
<path fill-rule="evenodd" clip-rule="evenodd" d="M78.73 45.2999C77.05 53.9099 69.46 60.4199 60.37 60.4199C50.02 60.4199 41.65 52.04 41.65 41.69C41.65 40.68 41.73 39.67 41.88 38.69C42.39 40.7 43.54 42.39 45.08 43.65C46.2 44.57 47.52 45.25 48.95 45.64C50.36 46.05 51.88 46.16 53.41 45.94C55.98 45.57 58.56 44.24 60.64 41.7C62.76 39.12 65.3599 37.7699 67.9399 37.4699C69.2599 37.3099 70.5799 37.4299 71.8199 37.7999C73.0599 38.1599 74.23 38.7799 75.24 39.6099C76.9 40.9599 78.17 42.9099 78.73 45.3099V45.2999Z" fill="#0161AD"/>
<path fill-rule="evenodd" clip-rule="evenodd" d="M60.3199 23.1499C70.6599 23.1499 79.03 31.5399 79.03 41.8799C79.03 43.0399 78.92 44.1899 78.72 45.2999C78.14 42.9599 76.88 41.0599 75.24 39.7399C74.21 38.8999 73.04 38.2799 71.79 37.9099C70.54 37.5399 69.21 37.4199 67.87 37.5699C65.27 37.8899 62.66 39.2299 60.53 41.8399C58.47 44.3599 55.92 45.6699 53.35 46.0499C51.84 46.2699 50.3301 46.1499 48.9301 45.7499C45.5201 44.7899 42.68 42.1899 41.87 38.6799C43.4 29.8699 51.0799 23.1599 60.3199 23.1599V23.1499Z" fill="#E72300"/>
</svg>
