<svg width="121" height="82" viewBox="0 0 121 82" fill="none" xmlns="http://www.w3.org/2000/svg">
<path d="M120.84 0.830078H0.469971V81.0201H120.84V0.830078Z" fill="#123E7B"/>
<path fill-rule="evenodd" clip-rule="evenodd" d="M23.45 37.6601V26.4301L6.70996 37.6601H0.469971V33.6501L12.49 25.3901H0.469971V13.1701H12.71L0.469971 5.18008V0.830078H6.65991L23.45 12.0601V0.830078H32.6499V12.1701L49.5901 0.830078H55.72V5.03009L43.73 13.1701H55.72V25.3901H43.6201L55.72 33.6501V37.6601H49.49L32.6499 26.4501V37.6601H23.45Z" fill="#FEFEFE"/>
<path fill-rule="evenodd" clip-rule="evenodd" d="M25.29 37.6601V22.8901H0.469971V15.5401H25.29V0.830078H30.78V15.5401H55.72V22.8901H30.78V37.6601H25.29Z" fill="#D91C00"/>
<path fill-rule="evenodd" clip-rule="evenodd" d="M0.469971 0.830078V3.5701L14.79 13.1701H18.96L0.469971 0.830078Z" fill="url(#paint0_linear_2013_23107)"/>
<path fill-rule="evenodd" clip-rule="evenodd" d="M33.0701 13.1701L51.48 0.830078H55.6699L37.46 13.1701H33.0701Z" fill="url(#paint1_linear_2013_23107)"/>
<path fill-rule="evenodd" clip-rule="evenodd" d="M18.8899 25.3901L0.52002 37.6601H4.87012L23.0801 25.3901H18.8899Z" fill="url(#paint2_linear_2013_23107)"/>
<path fill-rule="evenodd" clip-rule="evenodd" d="M37.3601 25.3901H41.54L55.72 34.8901V37.6601L37.3601 25.3901Z" fill="url(#paint3_linear_2013_23107)"/>
<path fill-rule="evenodd" clip-rule="evenodd" d="M96.6699 16.23L92.71 16.21L91.47 12.25L90.22 16.21L86.27 16.23L89.45 18.71L88.25 22.7L91.47 20.26L94.6799 22.7L93.5 18.71L96.6699 16.23Z" fill="#D91C00"/>
<path d="M87.8601 23.26L89.2 18.79L85.6499 16.02L90.0701 15.99L91.47 11.52L92.8701 15.99L97.29 16.02L93.73 18.79L95.0701 23.26L91.47 20.53L87.8601 23.26ZM91.47 19.99L94.29 22.12L93.25 18.64L96.0601 16.45L92.5801 16.42L91.48 12.97L90.3799 16.42L86.8899 16.45L89.71 18.64L88.6499 22.12L91.48 19.99H91.47Z" fill="#FEFEFE"/>
<path fill-rule="evenodd" clip-rule="evenodd" d="M111.19 29.05L107.49 29.0201L106.32 25.3101L105.15 29.0201L101.44 29.05L104.42 31.3801L103.3 35.11L106.32 32.83L109.33 35.11L108.21 31.3801L111.19 29.05Z" fill="#D91C00"/>
<path d="M102.91 35.6701L104.17 31.4501L100.82 28.8401L105 28.8101L106.33 24.6001L107.66 28.8101L111.83 28.8401L108.48 31.4501L109.74 35.6701L106.33 33.1001L102.91 35.6701ZM106.32 32.5601L108.94 34.5401L107.96 31.3001L110.58 29.2601L107.33 29.2401L106.32 26.0301L105.31 29.2401L102.06 29.2601L104.67 31.3001L103.7 34.5401L106.32 32.5601Z" fill="#FEFEFE"/>
<path fill-rule="evenodd" clip-rule="evenodd" d="M79.22 33.5801L75.51 33.5501L74.3401 29.8401L73.1599 33.5501L69.47 33.5801L72.45 35.9101L71.3301 39.6301L74.3401 37.3601L77.3601 39.6301L76.24 35.9101L79.22 33.5801Z" fill="#D91C00"/>
<path d="M70.9299 40.2001L72.2 35.9801L68.8501 33.3701L73.01 33.3301L74.3401 29.1201L75.6799 33.3301L79.8501 33.3701L76.5 35.9801L77.76 40.2001L74.3401 37.6301L70.9299 40.2001ZM74.3401 37.0901L76.96 39.0601L75.99 35.8201L78.6101 33.7901L75.3601 33.7701L74.3401 30.5601L73.3301 33.7701L70.0901 33.7901L72.7 35.8201L71.73 39.0601L74.3401 37.0901Z" fill="#FEFEFE"/>
<path fill-rule="evenodd" clip-rule="evenodd" d="M98.6001 60.2601L93.23 60.2201L91.54 54.8501L89.8401 60.2201L84.48 60.2601L88.8 63.6301L87.1599 69.0201L91.54 65.7301L95.8999 69.0201L94.28 63.6301L98.6001 60.2601Z" fill="#D91C00"/>
<path d="M86.77 69.5901L88.54 63.7101L83.8501 60.0601L89.6799 60.0201L91.53 54.1501L93.3799 60.0201L99.21 60.0601L94.52 63.7101L96.28 69.5901L91.53 65.9901L86.77 69.5901ZM91.54 65.4701L95.51 68.4601L94.03 63.5501L97.98 60.4701L93.0701 60.4401L91.54 55.5601L90.01 60.4401L85.0901 60.4701L89.04 63.5501L87.5601 68.4601L91.54 65.4701Z" fill="#FEFEFE"/>
<defs>
<linearGradient id="paint0_linear_2013_23107" x1="-51.63" y1="51.5702" x2="105.23" y2="-62.3996" gradientUnits="userSpaceOnUse">
<stop stop-color="#E03326"/>
<stop offset="0.1" stop-color="#DF2D27"/>
<stop offset="0.11" stop-color="#E03326"/>
<stop offset="0.49" stop-color="#BE3320"/>
<stop offset="1" stop-color="#E03326"/>
</linearGradient>
<linearGradient id="paint1_linear_2013_23107" x1="1.18027" y1="38.3802" x2="53.6102" y2="0.29051" gradientUnits="userSpaceOnUse">
<stop stop-color="#E03326"/>
<stop offset="0.1" stop-color="#DF2D27"/>
<stop offset="0.11" stop-color="#E03326"/>
<stop offset="0.49" stop-color="#BE3320"/>
<stop offset="1" stop-color="#E03326"/>
</linearGradient>
<linearGradient id="paint2_linear_2013_23107" x1="0.56002" y1="39.6901" x2="54.0199" y2="0.849914" gradientUnits="userSpaceOnUse">
<stop stop-color="#E03326"/>
<stop offset="0.1" stop-color="#DF2D27"/>
<stop offset="0.11" stop-color="#E03326"/>
<stop offset="0.49" stop-color="#BE3320"/>
<stop offset="1" stop-color="#E03326"/>
</linearGradient>
<linearGradient id="paint3_linear_2013_23107" x1="-51.7692" y1="102.95" x2="101.72" y2="-8.55916" gradientUnits="userSpaceOnUse">
<stop stop-color="#E03326"/>
<stop offset="0.1" stop-color="#DF2D27"/>
<stop offset="0.11" stop-color="#E03326"/>
<stop offset="0.49" stop-color="#BE3320"/>
<stop offset="1" stop-color="#E03326"/>
</linearGradient>
</defs>
</svg>
