<svg width="121" height="81" viewBox="0 0 121 81" fill="none" xmlns="http://www.w3.org/2000/svg">
<path d="M120.52 0.25H0.149902V26.98H120.52V0.25Z" fill="#F1F2F2"/>
<path d="M120.52 26.98H0.149902V53.71H120.52V26.98Z" fill="url(#paint0_linear_2013_26052)"/>
<path d="M120.52 53.71H0.149902V80.4399H120.52V53.71Z" fill="#D41800"/>
<path d="M25.05 15.9099C24.79 16.0199 24.53 16.15 24.26 16.28L25.1001 29.4999C25.4901 35.7299 29.7199 41.04 35.6799 42.83C41.6299 41.04 45.86 35.7299 46.26 29.4999L47.1001 16.28C46.8401 16.15 46.57 16.0199 46.3 15.9099L45.45 29.45C45.08 35.24 41.1999 40.2 35.6799 41.96C30.1499 40.2 26.2799 35.24 25.9199 29.45L25.05 15.9099Z" fill="#D41800"/>
<path d="M46.3 15.9099C39.57 12.9499 31.79 12.9499 25.05 15.9099L25.9199 29.45C26.2799 35.24 30.1499 40.2 35.6799 41.96C41.1899 40.2 45.08 35.24 45.45 29.45L46.3 15.9099Z" fill="url(#paint1_linear_2013_26052)"/>
<path d="M36.3201 20L36.79 19.36L36.01 19.44L35.6799 18.72L35.3501 19.44L34.5601 19.36L35.04 20L34.5601 20.65L35.3501 20.57L35.6799 21.3L36.01 20.57L36.79 20.65L36.3201 20ZM33.3201 16.02L33.79 15.37L33 15.46L32.6799 14.73L32.3501 15.46L31.5701 15.37L32.04 16.02L31.5701 16.66L32.3501 16.57L32.6799 17.31L33 16.57L33.79 16.66L33.3201 16.02ZM39.3201 16.02L39.79 15.37L39 15.46L38.6799 14.73L38.3601 15.46L37.5601 15.37L38.04 16.02L37.5601 16.66L38.3601 16.57L38.6799 17.31L39 16.57L39.79 16.66L39.3201 16.02Z" fill="#FFCD15"/>
<path d="M44.24 31.4299L39.95 25.7099L38.24 27.9999L35.6699 22.8599L33.0901 27.9999L31.3799 25.7099L27.1001 31.4299C27.1001 32.9999 28.37 34.2799 29.95 34.2799C31.02 34.2799 31.2301 33.8299 32.0601 33.6199C33.7401 33.1699 34.2199 34.2799 35.6599 34.2799C37.0999 34.2799 37.57 33.1599 39.25 33.6199C40.08 33.8299 40.3201 34.2799 41.3701 34.2799C42.9401 34.2799 44.22 32.9999 44.22 31.4299H44.24ZM41.8501 36.7099C40.2601 38.7399 38.1199 40.2599 35.6799 41.0999C33.2299 40.2699 31.09 38.7399 29.5 36.7099C29.5 36.7099 30.29 36.7599 30.71 36.6499C31.53 36.4299 31.7501 35.9899 32.8201 35.9899C34.2601 35.9899 34.7599 37.0899 36.4199 36.6499C37.2399 36.4299 37.48 35.9899 38.53 35.9899C39.82 35.9899 40.4001 36.9499 41.8501 36.7099ZM28.1299 34.5199C28.3299 34.9099 28.54 35.2899 28.77 35.6599C28.77 35.6599 29.96 36.0299 30.71 35.8199C31.53 35.5999 31.7501 35.1599 32.8201 35.1599C34.2601 35.1599 34.7599 36.2699 36.4199 35.8199C37.2399 35.5999 37.48 35.1599 38.53 35.1599C39.96 35.1599 40.4699 36.2699 42.1299 35.8199C42.2799 35.7799 42.4501 35.7199 42.5801 35.6599C42.8201 35.2899 43.04 34.8999 43.23 34.5199C43.09 34.5699 42.9501 34.6398 42.8201 34.7198C42.6701 34.8198 42.3199 34.9499 42.1299 34.9999C40.4499 35.4499 39.97 34.3399 38.53 34.3399C37.51 34.3399 37.2699 34.7699 36.4199 34.9999C34.7399 35.4499 34.2601 34.3399 32.8201 34.3399C31.8001 34.3399 31.57 34.7699 30.71 34.9999C29.98 35.2099 29.2 35.0998 28.55 34.7198C28.51 34.6898 28.1399 34.5399 28.1399 34.5199H28.1299Z" fill="white"/>
<defs>
<linearGradient id="paint0_linear_2013_26052" x1="0.149902" y1="40.35" x2="120.52" y2="40.35" gradientUnits="userSpaceOnUse">
<stop stop-color="#0B4EAB"/>
<stop offset="1" stop-color="#0B4EAB"/>
</linearGradient>
<linearGradient id="paint1_linear_2013_26052" x1="25.05" y1="24.603" x2="46.3" y2="24.603" gradientUnits="userSpaceOnUse">
<stop stop-color="#0B4EAB"/>
<stop offset="1" stop-color="#0B4EAB"/>
</linearGradient>
</defs>
</svg>
