<svg width="122" height="81" viewBox="0 0 122 81" fill="none" xmlns="http://www.w3.org/2000/svg">
<path d="M121.21 0.25H0.840088V80.42H121.21V0.25Z" fill="#F7F7F7"/>
<path d="M0.840088 26.97H24.03C23.88 30.04 23.75 34.19 23.75 39.34C23.75 45.53 26.01 50.19 29.05 53.7H0.840088V26.97ZM55.78 26.97H121.2V53.7H50.75C53.8 50.19 56.0601 45.53 56.0601 39.34C56.0601 34.19 55.93 30.04 55.78 26.97Z" fill="url(#paint0_linear_2013_26069)"/>
<path d="M0.840088 53.7H29.05C32.19 57.33 36.1801 59.73 39.3101 61.27L39.9099 61.5599L40.51 61.27C43.65 59.73 47.64 57.33 50.77 53.7H121.22V80.4199H0.850098V53.7H0.840088Z" fill="#D41800"/>
<path d="M25.1201 39.34C25.1201 27.6 25.6699 22.26 25.6699 22.26H54.1399C54.1399 22.26 54.6799 27.6 54.6799 39.34C54.6799 43.44 53.58 46.79 51.99 49.63C51.89 49.8 51.7699 49.97 51.6399 50.18C51.6699 50.13 51.71 50.08 51.74 50.03C50.97 48.62 49.7401 47.11 48.0701 47.07H47.78C47.78 47.07 47.7099 47.07 47.6699 47.08C47.6699 47.08 47.6001 47.08 47.5601 47.08C47.5601 47.08 47.49 47.09 47.45 47.1C47.45 47.1 47.3801 47.11 47.3401 47.11C47.3401 47.11 47.27 47.12 47.24 47.13C47.24 47.13 47.1699 47.15 47.1299 47.15C47.1299 47.15 47.08 47.17 47.04 47.18C47.04 47.18 46.9699 47.19 46.9399 47.2C46.9399 47.2 46.8901 47.22 46.8501 47.23C46.8501 47.23 46.77 47.24 46.75 47.26C46.75 47.26 46.6999 47.28 46.6599 47.29C45.1699 47.82 44.5801 49.12 44.5701 49.12C44.5701 49.12 43.32 45.8 40.96 44.98C40.92 44.97 40.8701 44.94 40.8301 44.94C40.8301 44.94 40.7399 44.91 40.6899 44.9C40.6899 44.9 40.6101 44.88 40.5701 44.87C40.5701 44.87 40.4699 44.85 40.4299 44.85C40.4299 44.85 40.34 44.84 40.3 44.83C40.3 44.83 40.1999 44.82 40.1599 44.82C40.1599 44.82 40.07 44.81 40.02 44.81C40.02 44.81 39.9299 44.8 39.8799 44.8C39.8799 44.8 39.78 44.81 39.74 44.81C39.74 44.81 39.6501 44.81 39.6001 44.82C39.6001 44.82 39.51 44.82 39.47 44.83C39.42 44.84 39.3801 44.84 39.3301 44.85C39.3301 44.85 39.24 44.87 39.2 44.87C39.2 44.87 39.1001 44.89 39.0701 44.9C39.0201 44.92 38.9799 44.92 38.9299 44.94C38.9299 44.94 38.85 44.97 38.8 44.98C36.45 45.8 35.1899 49.11 35.1899 49.11C35.1899 49.11 34.6001 47.82 33.1101 47.28C33.0801 47.27 33.04 47.26 33.01 47.25C33.01 47.25 32.9599 47.22 32.9199 47.22C32.9199 47.22 32.8501 47.2 32.8201 47.19C32.8201 47.19 32.77 47.18 32.73 47.17C32.73 47.17 32.6599 47.15 32.6299 47.14C32.6299 47.14 32.56 47.13 32.52 47.12C32.52 47.12 32.4499 47.11 32.4199 47.1C32.4199 47.1 32.3401 47.1 32.3101 47.09C32.3101 47.09 32.24 47.08 32.2 47.07C32.2 47.07 32.1301 47.07 32.1001 47.07C32.1001 47.07 32.02 47.07 31.99 47.06H31.6899C30.0399 47.1 28.81 48.6 28.02 50.02C25.77 47.52 25.0801 42.57 25.0801 39.33L25.1201 39.34Z" fill="#D41800"/>
<path d="M41.2 36.2601C42.85 36.2901 46.0599 36.3601 48.9199 35.3801C48.8099 36.8501 48.8099 38.4201 48.9199 39.9001C46.2999 39.0001 43.05 38.9901 41.2 39.0101V45.0701C40.8 44.8901 40.3599 44.7901 39.8999 44.7901C39.4399 44.7901 39.0001 44.8901 38.6001 45.0701V39.0101C36.7401 38.9901 33.4999 39.0001 30.8799 39.9001C30.9899 38.4201 30.9899 36.8501 30.8799 35.3801C33.7399 36.3601 36.9501 36.2901 38.6001 36.2601V32.1901C37.1001 32.1701 34.93 32.2501 32.49 33.0801C32.6 31.6001 32.6 30.0301 32.49 28.5501C34.94 29.3801 37.0901 29.4601 38.5901 29.4501C38.5101 26.8801 37.79 23.6201 37.79 23.6201C39.31 23.7401 40.5 23.7401 42.02 23.6201C42.02 23.6201 41.28 26.8701 41.2 29.4501C42.71 29.4501 44.8701 29.3801 47.3101 28.5501C47.2001 30.0301 47.2001 31.6001 47.3101 33.0801C44.8601 32.2501 42.7 32.1701 41.2 32.1901V36.2601Z" fill="#F5F4F5"/>
<path d="M28.05 50.0301C28.84 48.6001 30.1 47.0701 31.78 47.0701C34.28 47.0701 35.2 49.1301 35.2 49.1301C35.2 49.1301 36.8399 44.79 39.8999 44.79C42.9599 44.79 44.6001 49.1301 44.6001 49.1301C44.6001 49.1301 45.52 47.0701 48.03 47.0701C49.72 47.0701 50.97 48.6001 51.75 50.0301C48.68 55.0201 43.7699 58.1101 39.8999 60.0101C36.0499 58.1201 31.13 55.0301 28.05 50.0301Z" fill="url(#paint1_linear_2013_26069)"/>
<defs>
<linearGradient id="paint0_linear_2013_26069" x1="-10.8299" y1="36.57" x2="132.84" y2="44.1" gradientUnits="userSpaceOnUse">
<stop stop-color="#0B4EAB"/>
<stop offset="1" stop-color="#0B4EAB"/>
</linearGradient>
<linearGradient id="paint1_linear_2013_26069" x1="40.17" y1="18.11" x2="39.8" y2="61.9501" gradientUnits="userSpaceOnUse">
<stop stop-color="#0B4EAB"/>
<stop offset="1" stop-color="#0B4EAB"/>
</linearGradient>
</defs>
</svg>
