<svg width="121" height="81" viewBox="0 0 121 81" fill="none" xmlns="http://www.w3.org/2000/svg">
<path d="M120.74 0.75H0.5V80.7H120.74V0.75Z" fill="#000D7F"/>
<path fill-rule="evenodd" clip-rule="evenodd" d="M50.52 80.7V56.3L14.0601 80.7H0.5V71.97L26.6599 54.05H0.5V27.53H27.1599L0.5 10.18V0.75H13.96L50.52 25.11V0.75H70.55V25.35L107.39 0.75H120.73V9.85999L94.6399 27.53H120.73V54.05H94.4199L120.73 71.97V80.67H107.19L70.55 56.34V80.7H50.52Z" fill="white"/>
<path fill-rule="evenodd" clip-rule="evenodd" d="M54.51 80.7V48.63H0.5V32.66H54.51V0.75H66.5V32.66H120.73V48.63H66.5V80.7H54.51Z" fill="#D41800"/>
<path fill-rule="evenodd" clip-rule="evenodd" d="M0.5 0.75V6.69L31.7 27.53H40.76L0.5 0.75Z" fill="#D41800"/>
<path fill-rule="evenodd" clip-rule="evenodd" d="M71.46 27.53L111.53 0.75H120.63L81.01 27.53H71.46Z" fill="#D41800"/>
<path fill-rule="evenodd" clip-rule="evenodd" d="M40.5901 54.05L0.620117 80.7H10.0901L49.73 54.04L40.5901 54.05Z" fill="#D41800"/>
<path fill-rule="evenodd" clip-rule="evenodd" d="M80.8 54.05H89.8799L120.73 74.6501V80.7L80.8 54.05Z" fill="#D41800"/>
</svg>
