<svg width="121" height="81" viewBox="0 0 121 81" fill="none" xmlns="http://www.w3.org/2000/svg">
<path d="M120.15 55.99H0.610107V62.15H120.15V55.99Z" fill="#F1F2F2"/>
<path d="M120.15 6.80005H57.27V12.9601H120.15V6.80005Z" fill="#F1F2F2"/>
<path d="M120.15 19.1001H57.28V25.2501H120.15V19.1001Z" fill="#F1F2F2"/>
<path d="M120.15 31.3901H57.28V37.5501H120.15V31.3901Z" fill="#F1F2F2"/>
<path d="M120.15 43.71H0.610107V49.8599H120.15V43.71Z" fill="#F1F2F2"/>
<path d="M120.15 68.3101H0.610107V74.46H120.15V68.3101Z" fill="#F1F2F2"/>
<path d="M120.15 62.1499H0.610107V68.2999H120.15V62.1499Z" fill="#E10E00"/>
<path d="M120.15 12.96H57.27V19.1099H120.15V12.96Z" fill="#E10E00"/>
<path d="M120.15 0.75H57.27V6.79999H120.15V0.75Z" fill="#E10E00"/>
<path d="M120.15 25.26H57.27V31.4H120.15V25.26Z" fill="#E10E00"/>
<path d="M120.15 37.55H57.27V43.7101H120.15V37.55Z" fill="#E10E00"/>
<path d="M120.15 49.8599H0.610107V55.9999H120.15V49.8599Z" fill="#E10E00"/>
<path d="M120.15 74.45H0.610107V80.6H120.15V74.45Z" fill="#E10E00"/>
<path d="M57.27 0.75H0.610107V43.71H57.27V0.75Z" fill="#000D7F"/>
<path fill-rule="evenodd" clip-rule="evenodd" d="M4.97998 3.98999L5.48999 5.60999L7.1499 5.59003L5.81006 6.59003L6.32007 8.21997L4.96997 7.21002L3.62988 8.21997L4.13989 6.59003L2.79004 5.59003L4.45996 5.60999L4.95996 3.98999H4.97998ZM42.99 3.98999L43.5 5.60999L45.1599 5.59003L43.8201 6.59003L44.3301 8.21997L42.98 7.21002L41.6399 8.21997L42.1499 6.59003L40.8101 5.59003L42.47 5.60999L42.97 3.98999H42.99ZM52.45 3.98999L52.96 5.60999L54.6399 5.59003L53.28 6.59003L53.8 8.21997L52.45 7.21002L51.1101 8.21997L51.6299 6.59003L50.27 5.59003L51.9299 5.60999L52.4399 3.98999H52.45ZM23.97 3.98999L24.48 5.60999L26.1399 5.59003L24.79 6.59003L25.3101 8.21997L23.96 7.21002L22.6201 8.21997L23.1299 6.59003L21.78 5.59003L23.4399 5.60999L23.95 3.98999H23.97ZM14.4399 3.98999L14.95 5.60999L16.6101 5.59003L15.26 6.59003L15.78 8.21997L14.4299 7.21002L13.0801 8.21997L13.6101 6.59003L12.25 5.59003L13.9099 5.60999L14.4199 3.98999H14.4399ZM33.45 3.98999L33.95 5.60999L35.6101 5.59003L34.26 6.59003L34.78 8.21997L33.4399 7.21002L32.0901 8.21997L32.6001 6.59003L31.25 5.59003L32.8999 5.60999L33.4299 3.98999H33.45Z" fill="#F1F2F2"/>
<path fill-rule="evenodd" clip-rule="evenodd" d="M4.97998 12.04L5.48999 13.67H7.1499L5.81006 14.67L6.32007 16.2801L4.96997 15.2801L3.62988 16.2801L4.13989 14.67L2.79004 13.67H4.45996L4.95996 12.04H4.97998ZM42.99 12.04L43.5 13.67H45.1599L43.8201 14.67L44.3301 16.2801L42.98 15.2801L41.6399 16.2801L42.1499 14.67L40.8101 13.67H42.47L42.97 12.04H42.99ZM52.45 12.04L52.96 13.67H54.6399L53.28 14.67L53.8 16.2801L52.45 15.2801L51.1101 16.2801L51.6299 14.67L50.27 13.67H51.9299L52.4399 12.04H52.45ZM23.97 12.04L24.48 13.67H26.1399L24.79 14.67L25.3101 16.2801L23.96 15.2801L22.6201 16.2801L23.1299 14.67L21.78 13.67H23.4399L23.95 12.04H23.97ZM14.4399 12.04L14.95 13.67H16.6101L15.26 14.67L15.78 16.2801L14.4299 15.2801L13.0801 16.2801L13.6101 14.67L12.25 13.67H13.9099L14.4199 12.04H14.4399ZM33.45 12.04L33.95 13.67H35.6101L34.26 14.67L34.78 16.2801L33.4399 15.2801L32.0901 16.2801L32.6001 14.67L31.25 13.67H32.8999L33.4299 12.04H33.45Z" fill="#F1F2F2"/>
<path fill-rule="evenodd" clip-rule="evenodd" d="M4.97998 19.99L5.48999 21.61H7.1499L5.81006 22.6L6.32007 24.23L4.96997 23.22L3.62988 24.23L4.13989 22.6L2.79004 21.6H4.45996L4.95996 19.99H4.97998ZM42.99 19.99L43.5 21.61H45.1599L43.8201 22.6L44.3301 24.23L42.98 23.22L41.6399 24.23L42.1499 22.6L40.8101 21.6H42.47L42.97 19.99H42.99ZM52.45 19.99L52.96 21.61H54.6399L53.28 22.6L53.8 24.23L52.45 23.22L51.1101 24.23L51.6299 22.6L50.27 21.6H51.9299L52.4399 19.99H52.45ZM23.97 19.99L24.48 21.61H26.1399L24.79 22.6L25.3101 24.23L23.96 23.22L22.6201 24.23L23.1299 22.6L21.78 21.6H23.4399L23.95 19.99H23.97ZM14.4399 19.99L14.95 21.61H16.6101L15.26 22.6L15.78 24.23L14.4299 23.22L13.0801 24.23L13.6101 22.6L12.25 21.6H13.9099L14.4199 19.99H14.4399ZM33.45 19.99L33.95 21.61H35.6101L34.26 22.6L34.78 24.23L33.4399 23.22L32.0901 24.23L32.6001 22.6L31.25 21.6H32.8999L33.4299 19.99H33.45Z" fill="#F1F2F2"/>
<path fill-rule="evenodd" clip-rule="evenodd" d="M4.97998 28.0801L5.48999 29.7001H7.1499L5.81006 30.7101L6.32007 32.3101L4.96997 31.3101L3.62988 32.3101L4.13989 30.7101L2.79004 29.7001H4.45996L4.95996 28.0801H4.97998ZM42.99 28.0801L43.5 29.7001H45.1599L43.8201 30.7101L44.3301 32.3101L42.98 31.3101L41.6399 32.3101L42.1499 30.7101L40.8101 29.7001H42.47L42.97 28.0801H42.99ZM52.45 28.0801L52.96 29.7001H54.6399L53.28 30.7101L53.8 32.3101L52.45 31.3101L51.1101 32.3101L51.6299 30.7101L50.27 29.7001H51.9299L52.4399 28.0801H52.45ZM23.97 28.0801L24.48 29.7001H26.1399L24.79 30.7101L25.3101 32.3101L23.96 31.3101L22.6201 32.3101L23.1299 30.7101L21.78 29.7001H23.4399L23.95 28.0801H23.97ZM14.4399 28.0801L14.95 29.7001H16.6101L15.26 30.7101L15.78 32.3101L14.4299 31.3101L13.0801 32.3101L13.6101 30.7101L12.25 29.7001H13.9099L14.4199 28.0801H14.4399ZM33.45 28.0801L33.95 29.7001H35.6101L34.26 30.7101L34.78 32.3101L33.4399 31.3101L32.0901 32.3101L32.6001 30.7101L31.25 29.7001H32.8999L33.4299 28.0801H33.45Z" fill="#F1F2F2"/>
<path fill-rule="evenodd" clip-rule="evenodd" d="M4.97998 36.1201L5.48999 37.7501H7.1499L5.81006 38.7301L6.32007 40.3601L4.96997 39.3501L3.62988 40.3601L4.13989 38.7301L2.79004 37.7501H4.45996L4.95996 36.1201H4.97998ZM42.99 36.1201L43.5 37.7501H45.1599L43.8201 38.7301L44.3301 40.3601L42.98 39.3501L41.6399 40.3601L42.1499 38.7301L40.8101 37.7501H42.47L42.97 36.1201H42.99ZM52.45 36.1201L52.96 37.7501H54.6399L53.28 38.7301L53.8 40.3601L52.45 39.3501L51.1101 40.3601L51.6299 38.7301L50.27 37.7501H51.9299L52.4399 36.1201H52.45ZM23.97 36.1201L24.48 37.7501H26.1399L24.79 38.7301L25.3101 40.3601L23.96 39.3501L22.6201 40.3601L23.1299 38.7301L21.78 37.7501H23.4399L23.95 36.1201H23.97ZM14.4399 36.1201L14.95 37.7501H16.6101L15.26 38.7301L15.78 40.3601L14.4299 39.3501L13.0801 40.3601L13.6101 38.7301L12.25 37.7501H13.9099L14.4199 36.1201H14.4399ZM33.45 36.1201L33.95 37.7501H35.6101L34.26 38.7301L34.78 40.3601L33.4399 39.3501L32.0901 40.3601L32.6001 38.7301L31.25 37.7501H32.8999L33.4299 36.1201H33.45Z" fill="#F1F2F2"/>
<path fill-rule="evenodd" clip-rule="evenodd" d="M38.1101 32.1499L38.6299 33.7699L40.29 33.7599L38.9399 34.7599L39.47 36.3799L38.1101 35.3699L36.78 36.3799L37.29 34.7599L35.9399 33.7599L37.6101 33.7699L38.1101 32.1499Z" fill="#F1F2F2"/>
<path fill-rule="evenodd" clip-rule="evenodd" d="M19.1201 32.1499L19.6299 33.7699L21.3 33.7599L19.95 34.7599L20.47 36.3799L19.1201 35.3699L17.77 36.3799L18.29 34.7599L16.95 33.7599L18.6101 33.7699L19.1201 32.1499Z" fill="#F1F2F2"/>
<path fill-rule="evenodd" clip-rule="evenodd" d="M28.6499 32.1499L29.1699 33.7699L30.8401 33.7599L29.49 34.7599L30 36.3799L28.6499 35.3699L27.3101 36.3799L27.8301 34.7599L26.47 33.7599L28.1399 33.7699L28.6499 32.1499Z" fill="#F1F2F2"/>
<path fill-rule="evenodd" clip-rule="evenodd" d="M47.6799 32.1499L48.1899 33.7699L49.8501 33.7599L48.5 34.7599L49 36.3799L47.6799 35.3699L46.3301 36.3799L46.8501 34.7599L45.5 33.7599L47.1699 33.7699L47.6799 32.1499Z" fill="#F1F2F2"/>
<path fill-rule="evenodd" clip-rule="evenodd" d="M9.65991 32.1499L10.1799 33.7699L11.8401 33.7599L10.48 34.7599L11.01 36.3799L9.65991 35.3699L8.31006 36.3799L8.83008 34.7599L7.48999 33.7599L9.1499 33.7699L9.65991 32.1499Z" fill="#F1F2F2"/>
<path fill-rule="evenodd" clip-rule="evenodd" d="M38.1101 24.1099L38.6299 25.7299H40.29L38.9399 26.7099L39.47 28.3399L38.1101 27.3399L36.78 28.3399L37.29 26.7099L35.9399 25.7299H37.6101L38.1101 24.1099Z" fill="#F1F2F2"/>
<path fill-rule="evenodd" clip-rule="evenodd" d="M19.1201 24.1099L19.6299 25.7299H21.3L19.95 26.7099L20.47 28.3399L19.1201 27.3399L17.77 28.3399L18.29 26.7099L16.95 25.7299H18.6101L19.1201 24.1099Z" fill="#F1F2F2"/>
<path fill-rule="evenodd" clip-rule="evenodd" d="M28.6499 24.1099L29.1699 25.7299H30.8401L29.49 26.7099L30 28.3399L28.6499 27.3399L27.3101 28.3399L27.8301 26.7099L26.47 25.7299H28.1399L28.6499 24.1099Z" fill="#F1F2F2"/>
<path fill-rule="evenodd" clip-rule="evenodd" d="M47.6799 24.1099L48.1899 25.7299H49.8501L48.5 26.7099L49 28.3399L47.6799 27.3399L46.3301 28.3399L46.8501 26.7099L45.5 25.7299H47.1699L47.6799 24.1099Z" fill="#F1F2F2"/>
<path fill-rule="evenodd" clip-rule="evenodd" d="M9.65991 24.1099L10.1799 25.7299H11.8401L10.48 26.7099L11.01 28.3399L9.65991 27.3399L8.31006 28.3399L8.83008 26.7099L7.48999 25.7299H9.1499L9.65991 24.1099Z" fill="#F1F2F2"/>
<path fill-rule="evenodd" clip-rule="evenodd" d="M38.1101 16.05L38.6299 17.6801H40.29L38.9399 18.6801L39.47 20.3L38.1101 19.29L36.78 20.3L37.29 18.6801L35.9399 17.6801H37.6101L38.1101 16.05Z" fill="#F1F2F2"/>
<path fill-rule="evenodd" clip-rule="evenodd" d="M19.1201 16.05L19.6299 17.6801H21.3L19.95 18.6801L20.47 20.3L19.1201 19.29L17.77 20.3L18.29 18.6801L16.95 17.6801H18.6101L19.1201 16.05Z" fill="#F1F2F2"/>
<path fill-rule="evenodd" clip-rule="evenodd" d="M28.6499 16.05L29.1699 17.6801H30.8401L29.49 18.6801L30 20.3L28.6499 19.29L27.3101 20.3L27.8301 18.6801L26.47 17.6801H28.1399L28.6499 16.05Z" fill="#F1F2F2"/>
<path fill-rule="evenodd" clip-rule="evenodd" d="M47.6799 16.05L48.1899 17.6801H49.8501L48.5 18.6801L49 20.3L47.6799 19.29L46.3301 20.3L46.8501 18.6801L45.5 17.6801H47.1699L47.6799 16.05Z" fill="#F1F2F2"/>
<path fill-rule="evenodd" clip-rule="evenodd" d="M9.65991 16.05L10.1799 17.6801H11.8401L10.48 18.6801L11.01 20.3L9.65991 19.29L8.31006 20.3L8.83008 18.6801L7.48999 17.6801H9.1499L9.65991 16.05Z" fill="#F1F2F2"/>
<path fill-rule="evenodd" clip-rule="evenodd" d="M38.1101 8.03003L38.6299 9.65002H40.29L38.9399 10.64L39.47 12.26L38.1101 11.25L36.78 12.26L37.29 10.64L35.9399 9.65002H37.6101L38.1101 8.03003Z" fill="#F1F2F2"/>
<path fill-rule="evenodd" clip-rule="evenodd" d="M19.1201 8.03003L19.6299 9.65002H21.3L19.95 10.64L20.47 12.26L19.1201 11.25L17.77 12.26L18.29 10.64L16.95 9.65002H18.6101L19.1201 8.03003Z" fill="#F1F2F2"/>
<path fill-rule="evenodd" clip-rule="evenodd" d="M28.6499 8.03003L29.1699 9.65002H30.8401L29.49 10.64L30 12.26L28.6499 11.25L27.3101 12.26L27.8301 10.64L26.47 9.65002H28.1399L28.6499 8.03003Z" fill="#F1F2F2"/>
<path fill-rule="evenodd" clip-rule="evenodd" d="M47.6799 8.03003L48.1899 9.65002H49.8501L48.5 10.64L49 12.26L47.6799 11.25L46.3301 12.26L46.8501 10.64L45.5 9.65002H47.1699L47.6799 8.03003Z" fill="#F1F2F2"/>
<path fill-rule="evenodd" clip-rule="evenodd" d="M9.65991 8.03003L10.1799 9.65002H11.8401L10.48 10.64L11.01 12.26L9.65991 11.25L8.31006 12.26L8.83008 10.64L7.48999 9.65002H9.1499L9.65991 8.03003Z" fill="#F1F2F2"/>
</svg>
